#N canvas 717 96 562 536 12;
#X obj 274 511 dac~;
#X obj 269 381 tabplay~ \$0-soundfile;
#X obj 267 332 t b b;
#X msg 267 306 bang;
#X text 306 307 start playback;
#X obj 275 478 *~ 0;
#X msg 329 343 stop;
#N canvas 0 50 450 250 (subpatch) 0;
#X array \$0-soundfile 3.02602e+06 float 2;
#X coords 0 1 3.02602e+06 -1 200 140 1;
#X restore 32 58 graph;
#X obj 64 372 soundfiler;
#X obj 64 253 openpanel;
#X obj 247 175 bng 20 250 50 0 empty empty empty 17 7 0 10 #fcfcfc #000000 #000000;
#X floatatom 245 103 13 0 0 0 - - - 0;
#X obj 64 284 t a b;
#X obj 105 301 symbol \$0-soundfile;
#X obj 64 327 pack s s;
#X msg 64 350 read -resize \$1 \$2;
#X obj 318 27 cnv 15 20 20 empty empty 2 6 10 0 14 #fcc4c4 #404040 0;
#X obj 64 395 / 48000;
#X obj 155 378 print;
#X text 244 123 seconds;
#X obj 245 61 bng 30 250 50 0 empty empty empty 0 -10 0 12 #00ff04 #000000 #000000;
#X obj 309 61 bng 30 250 50 0 empty empty empty 0 -10 0 12 #ff0400 #000000 #000000;
#X obj 248 152 hsl 90 15 0 1 0 0 empty empty vol 2 7 0 12 #e3c6ff #000000 #2f004d 0 1;
#X text 270 176 load file;
#X obj 416 206 t b b;
#X obj 445 247 s stop;
#X obj 335 478 s play;
#X obj 400 23 r repeat;
#X obj 155 256 r audio_file;
#X obj 404 62 r halt;
#X connect 1 0 5 0;
#X connect 2 0 1 0;
#X connect 2 1 26 0;
#X connect 3 0 2 0;
#X connect 5 0 0 0;
#X connect 5 0 0 1;
#X connect 6 0 1 0;
#X connect 8 0 17 0;
#X connect 9 0 12 0;
#X connect 10 0 9 0;
#X connect 12 0 14 0;
#X connect 12 1 13 0;
#X connect 13 0 14 1;
#X connect 14 0 15 0;
#X connect 15 0 8 0;
#X connect 15 0 18 0;
#X connect 17 0 11 0;
#X connect 20 0 3 0;
#X connect 21 0 24 0;
#X connect 22 0 5 1;
#X connect 24 0 6 0;
#X connect 24 1 25 0;
#X connect 27 0 20 0;
#X connect 28 0 12 0;
#X connect 29 0 21 0;
#X coords 0 -1 1 1 335 200 1 20 20;
