#N canvas 826 73 553 649 10;
#X declare -lib Gem;
#X obj 4 6 cnv 15 480 60 empty empty A/V_Combination 20 30 0 20 #fcfcc4 #606060 0;
#X obj 26 630 dac~;
#X obj 28 276 soundfiler;
#X obj 28 165 openpanel;
#X obj 28 146 bng 15 250 50 0 empty empty empty 17 7 0 10 #fcfcfc #000000 #000000;
#X floatatom 28 344 20 0 0 0 - - - 0;
#N canvas 68 87 450 300 sample 0;
#N canvas 0 50 450 300 (subpatch) 0;
#X array \$0-soundfile 3.02602e+06 float 2;
#X coords 0 1 3.02602e+06 -1 200 140 1;
#X restore 17 27 graph;
#X restore 27 112 pd sample;
#X msg 293 111 create \, 1;
#X msg 305 133 0 \, destroy;
#X obj 295 491 pix_film;
#X obj 295 644 pix_texture;
#X obj 286 247 gemhead;
#X obj 323 324 bng 15 250 50 0 empty empty empty 17 7 0 10 #fcfcfc #000000 #000000;
#X obj 323 342 openpanel;
#X msg 323 361 open \$1;
#X text 27 85 Audio;
#X text 291 87 Video;
#X text 94 114 Storage for the sample;
#X text 359 113 Gem window;
#X text 48 144 loading the audio into the buffer;
#X text 340 324 opening the video file;
#X obj 28 188 t a b;
#X obj 55 208 symbol \$0-soundfile;
#X obj 28 231 pack s s;
#X msg 28 254 read -resize \$1 \$2;
#X obj 270 110 cnv 15 20 20 empty empty 1 6 10 0 14 #fcc4c4 #404040 0;
#X obj 300 320 cnv 15 20 20 empty empty 3 6 10 0 14 #fcc4c4 #404040 0;
#X obj 5 142 cnv 15 20 20 empty empty 2 6 10 0 14 #fcc4c4 #404040 0;
#N canvas 285 147 215 152 init 0;
#X obj 17 19 declare -lib Gem;
#X obj 17 42 loadbang;
#X msg 17 65 \; pd dsp 1;
#X connect 1 0 2 0;
#X restore 438 71 pd init;
#X obj 26 542 tabplay~ \$0-soundfile;
#X obj 26 431 t b b;
#X msg 26 405 bang;
#X msg 340 467 1;
#X obj 330 408 loadbang;
#X obj 317 592 s \$0-frames;
#X floatatom 327 571 5 0 0 0 - - - 0;
#X obj 37 323 s \$0-seconds;
#X obj 403 658 s \$0-framerate;
#X obj 317 156 r \$0-framerate;
#X msg 317 176 frame \$1;
#X obj 293 200 gemwin;
#X text 65 406 start playback;
#X text 22 703 Max Neupert - Bauhaus-Universität Weimar 2013;
#X obj 27 597 *~ 0;
#X obj 83 571 vsl 15 50 0 1 0 0 empty empty empty 0 -9 0 10 #fcfcfc #000000 #000000 0 1;
#X msg 387 188 dimen 360 240;
#X obj 28 299 / 48000;
#X msg 142 473 stop;
#X obj 435 161 loadbang;
#X msg 330 431 auto 1;
#X msg 217 422 auto 0;
#X obj 196 383 t b b;
#X obj 201 338 bng 18 250 50 0 empty empty empty 0 -9 0 10 #fcfcfc #000000 #000000;
#X msg 314 273 open ../content/proj_2.mp4;
#X msg 124 163 ../content/proj_2.wav;
#X obj 131 289 print;
#X obj 308 514 unpack f f f f;
#X floatatom 401 576 5 0 0 0 - - - 0;
#X obj 295 666 rectangle 7.18 4;
#X msg 137 185 ../content/sync.wav;
#X msg 326 295 open ../content/sync.mp4;
#X obj 387 232 print;
#X connect 2 0 46 0;
#X connect 3 0 21 0;
#X connect 4 0 3 0;
#X connect 7 0 40 0;
#X connect 8 0 40 0;
#X connect 9 0 10 0;
#X connect 9 1 56 0;
#X connect 9 2 31 0;
#X connect 10 0 58 0;
#X connect 11 0 9 0;
#X connect 12 0 13 0;
#X connect 13 0 14 0;
#X connect 14 0 9 0;
#X connect 21 0 23 0;
#X connect 21 1 22 0;
#X connect 22 0 23 1;
#X connect 23 0 24 0;
#X connect 24 0 2 0;
#X connect 24 0 55 0;
#X connect 29 0 43 0;
#X connect 30 0 29 0;
#X connect 30 1 32 0;
#X connect 31 0 30 0;
#X connect 31 0 49 0;
#X connect 32 0 9 1;
#X connect 33 0 49 0;
#X connect 38 0 39 0;
#X connect 39 0 40 0;
#X connect 39 0 61 0;
#X connect 43 0 1 0;
#X connect 43 0 1 1;
#X connect 44 0 43 1;
#X connect 45 0 40 0;
#X connect 46 0 5 0;
#X connect 46 0 36 0;
#X connect 47 0 29 0;
#X connect 48 0 45 0;
#X connect 49 0 9 0;
#X connect 50 0 9 0;
#X connect 51 0 47 0;
#X connect 51 0 50 0;
#X connect 52 0 51 0;
#X connect 53 0 9 0;
#X connect 54 0 21 0;
#X connect 56 0 34 0;
#X connect 56 0 35 0;
#X connect 56 3 57 0;
#X connect 57 0 37 0;
#X connect 59 0 21 0;
#X connect 60 0 9 0;
