#N canvas 11 294 521 456 12;
#X obj 231 216 gemhead;
#X obj 231 326 pix_film;
#X msg 245 293 open \$1;
#X obj 59 263 openpanel;
#X obj 59 238 bng 20 250 50 0 empty empty empty 0 -10 0 12 #fcfcfc #000000 #000000;
#X obj 257 356 unpack f f f;
#X floatatom 175 123 5 0 0 0 - - - 0;
#X floatatom 223 123 5 0 0 0 - - - 0;
#X floatatom 272 123 5 0 0 0 - - - 0;
#X msg 327 294 auto \$1;
#X obj 248 257 inlet;
#X obj 121 121 tgl 20 0 empty empty empty 0 -10 0 12 #fcfcfc #000000 #000000 0 1;
#X obj 122 160 tgl 20 0 empty empty empty 0 -10 0 12 #fcfcfc #000000 #000000 0 1;
#X obj 204 36 outlet;
#X obj 319 327 inlet;
#X obj 197 359 outlet;
#X connect 0 0 1 0;
#X connect 1 0 15 0;
#X connect 1 1 5 0;
#X connect 2 0 1 0;
#X connect 4 0 3 0;
#X connect 5 0 6 0;
#X connect 5 1 7 0;
#X connect 5 2 8 0;
#X connect 6 0 13 0;
#X connect 9 0 1 0;
#X connect 10 0 2 0;
#X connect 11 0 0 0;
#X connect 12 0 9 0;
#X connect 14 0 1 1;
#X coords 0 -1 1 1 300 100 1 100 100;
