#N canvas 833 38 759 408 12;
#X obj 29 256 drum-noise-snare;
#X obj 28 604 outputs~;
#X obj 147 473 drum-noise-kick;
#X obj 31 32 16stepseq;
#X obj 231 31 16stepctrl;
#X obj 330 310 16stepctrl;
#X obj 156 595 909kick;
#X obj 263 680 netreceive 3000;
#X obj 263 705 s pd;
#X obj 149 314 808snare;
#X connect 0 0 1 0;
#X connect 0 0 1 1;
#X connect 2 0 1 0;
#X connect 2 0 1 1;
#X connect 4 0 9 0;
#X connect 5 0 6 0;
#X connect 6 0 1 0;
#X connect 6 0 1 1;
#X connect 7 0 8 0;
#X connect 9 0 1 0;
#X connect 9 0 1 1;
