#N canvas 4 38 821 822 12;
#X obj 176 90 bng 20 250 50 0 empty empty empty 0 -10 0 12 #fcfcfc #000000 #000000;
#X msg 176 130 1 5;
#X obj 226 127 delay 5;
#X obj 93 245 *~;
#X obj 93 270 *~ 1;
#X obj 226 152 bng 20 250 50 0 empty empty empty 0 -10 0 12 #fcfcfc #000000 #000000;
#X msg 226 188 0.5 100;
#X obj 299 187 delay 100;
#X obj 299 212 bng 20 250 50 0 empty empty empty 0 -10 0 12 #fcfcfc #000000 #000000;
#X msg 299 237 0 150;
#X obj 92 113 *~ 0.5;
#X obj 92 138 hip~ 4000;
#X obj 92 88 noise~;
#X obj 176 282 line~;
#X obj 236 277 loadbang;
#X obj 236 302 tgl 20 0 empty empty empty 0 -10 0 12 #fcfcfc #000000 #000000 0 1;
#X obj 236 327 metro 20;
#X obj 236 352 snapshot~;
#X floatatom 236 377 5 0 0 0 - - - 0;
#X text 262 74 noise snare;
#X obj 176 53 inlet;
#X obj 92 348 outlet~;
#X connect 0 0 1 0;
#X connect 0 0 2 0;
#X connect 1 0 13 0;
#X connect 2 0 5 0;
#X connect 3 0 4 0;
#X connect 4 0 21 0;
#X connect 5 0 6 0;
#X connect 5 0 7 0;
#X connect 6 0 13 0;
#X connect 7 0 8 0;
#X connect 8 0 9 0;
#X connect 9 0 13 0;
#X connect 10 0 11 0;
#X connect 11 0 3 0;
#X connect 12 0 10 0;
#X connect 13 0 3 1;
#X connect 13 0 17 0;
#X connect 14 0 15 0;
#X connect 15 0 16 0;
#X connect 16 0 17 0;
#X connect 17 0 18 0;
#X connect 20 0 0 0;
