#N canvas 206 -21 930 460 12;
#X obj 134 19 bng 20 250 50 0 empty empty empty 0 -10 0 12 #fcfcfc #000000 #000000;
#X obj 104 239 *~ 0.5;
#X obj 103 319 *~;
#X obj 122 52 cnv 20 140 80 empty empty attack 20 12 0 12 #c6ffc7 #0f4710 0;
#X msg 134 80 1 1000;
#X obj 297 15 cnv 20 220 150 empty empty decay 20 12 0 12 #ffe3c6 #ff8300 0;
#X obj 313 49 delay 1000;
#X obj 313 86 bng 20 250 50 0 empty empty empty 0 -10 0 12 #fcfcfc #000000 #000000;
#X msg 313 120 0.5 1500;
#X text 395 44 delay c mesmo valor do attack;
#X obj 553 66 cnv 20 180 150 empty empty sustain 20 12 0 12 #c7c6ff #0400ff 0;
#X obj 583 128 delay 3000;
#X floatatom 650 96 8 0 0 0 - - - 0;
#X obj 392 202 cnv 20 140 120 empty empty decay 20 12 0 12 #e3c6ff #9c00ff 0;
#X obj 417 230 bng 20 250 50 0 empty empty empty 0 -10 0 12 #fcfcfc #000000 #000000;
#X msg 417 255 0 1000;
#X obj 103 344 *~ 0.25;
#X obj 103 391 dac~;
#X obj 104 214 noise~;
#X text 387 119 X a 0.5 em 1500ms;
#X text 142 108 X a 1 em 1000ms;
#X text 411 287 X a 0 em 1000ms;
#X obj 653 32 hsl 170 20 1000 5000 0 0 empty empty empty -2 -10 0 12 #c7c6ff #0400ff #000000 0 1;
#X text 573 162 delay delimita tempo de sustain;
#X text 740 79 delay é ativado junto com a msg de decay \, por tanto \, iniciam simultaneamente. por tanto deve ser considerado que o delay verdadeiro é esse valor menos o tempo de decay;
#X obj 161 265 line~;
#X obj 209 304 loadbang;
#X obj 209 329 tgl 20 0 empty empty empty 0 -10 0 12 #fcfcfc #000000 #000000 0 1;
#X obj 209 354 metro 20;
#X obj 209 379 snapshot~;
#X floatatom 209 404 5 0 0 0 - - - 0;
#X connect 0 0 4 0;
#X connect 0 0 6 0;
#X connect 1 0 2 0;
#X connect 2 0 16 0;
#X connect 4 0 25 0;
#X connect 6 0 7 0;
#X connect 7 0 8 0;
#X connect 7 0 11 0;
#X connect 8 0 25 0;
#X connect 11 0 14 0;
#X connect 12 0 11 1;
#X connect 14 0 15 0;
#X connect 15 0 25 0;
#X connect 16 0 17 0;
#X connect 16 0 17 1;
#X connect 18 0 1 0;
#X connect 22 0 12 0;
#X connect 25 0 2 1;
#X connect 25 0 29 0;
#X connect 26 0 27 0;
#X connect 27 0 28 0;
#X connect 28 0 29 0;
#X connect 29 0 30 0;
