#N canvas 4 311 1588 549 12;
#X obj 76 58 r start;
#X msg 76 83 dimen 800 600;
#X obj 78 184 gemwin;
#X msg 151 112 destroy;
#X msg 88 114 create;
#X obj 36 133 tgl 20 0 empty empty empty 0 -10 0 12 #fcfcfc #000000 #000000 0 1;
#X obj 58 236 loadbang;
#X obj 58 261 s start;
#X obj 320 70 gemhead;
#X obj 320 95 pix_video;
#X obj 320 120 pix_grey;
#X obj 320 170 pix_fiducialtrack all.tress;
#X obj 291 210 pix_texture;
#X obj 263 276 rectangle;
#X obj 395 203 r start;
#X msg 395 228 5.33;
#X obj 395 253 * 0.75;
#X obj 458 202 unpack f f f f;
#X floatatom 458 236 5 0 0 0 - - - 0;
#X floatatom 489 265 5 0 0 0 - - - 0;
#X floatatom 506 238 5 0 0 0 - - - 0;
#X floatatom 550 238 5 0 0 0 - - - 0;
#X obj 320 145 pix_threshold_bernsen 16 16;
#X connect 0 0 1 0;
#X connect 1 0 2 0;
#X connect 3 0 2 0;
#X connect 4 0 2 0;
#X connect 5 0 2 0;
#X connect 6 0 7 0;
#X connect 8 0 9 0;
#X connect 9 0 10 0;
#X connect 10 0 22 0;
#X connect 11 0 12 0;
#X connect 11 1 17 0;
#X connect 12 0 13 0;
#X connect 14 0 15 0;
#X connect 15 0 16 0;
#X connect 15 0 13 1;
#X connect 16 0 13 2;
#X connect 17 0 18 0;
#X connect 17 1 19 0;
#X connect 17 2 20 0;
#X connect 17 3 21 0;
#X connect 22 0 11 0;
