#N canvas 150 34 1184 635 12;
#X obj 27 181 gemwin;
#X msg 50 52 create \, 1;
#X msg 67 81 0 \, destroy;
#X obj 213 211 gemhead;
#X obj 214 184 tgl 20 0 empty empty empty 0 -10 0 12 #fcfcfc #000000 #000000 0 1;
#X obj 213 321 pix_film;
#X msg 227 288 open \$1;
#X obj 227 264 openpanel;
#X obj 227 239 bng 20 250 50 0 empty empty empty 0 -10 0 12 #fcfcfc #000000 #000000;
#X obj 239 351 unpack f f f;
#X floatatom 239 385 5 0 0 0 - - - 0;
#X floatatom 281 385 5 0 0 0 - - - 0;
#X floatatom 324 385 5 0 0 0 - - - 0;
#X obj 354 553 pix_texture;
#X msg 308 292 auto \$1;
#X obj 308 264 tgl 20 0 empty empty empty 0 -10 0 12 #fcfcfc #000000 #000000 0 1;
#X obj 289 147 tgl 20 0 empty empty empty 0 -10 0 12 #fcfcfc #000000 #000000 0 1;
#X obj 458 220 gemhead;
#X obj 458 194 tgl 20 0 empty empty empty 0 -10 0 12 #fcfcfc #000000 #000000 0 1;
#X obj 458 330 pix_film;
#X msg 472 297 open \$1;
#X obj 472 273 openpanel;
#X obj 472 248 bng 20 250 50 0 empty empty empty 0 -10 0 12 #fcfcfc #000000 #000000;
#X obj 484 360 unpack f f f;
#X floatatom 484 394 5 0 0 0 - - - 0;
#X floatatom 526 394 5 0 0 0 - - - 0;
#X floatatom 569 394 5 0 0 0 - - - 0;
#X msg 554 298 auto \$1;
#X obj 554 271 tgl 20 0 empty empty empty 0 -10 0 12 #fcfcfc #000000 #000000 0 1;
#X obj 351 512 pix_mix 0;
#X obj 287 199 random 1578;
#X obj 289 172 metro 250;
#X obj 420 483 hsl 170 20 0 1 0 0 empty empty empty -2 -10 0 12 #fcfcfc #000000 #000000 0 1;
#X obj 239 410 s frames1;
#X obj 363 173 r frames1;
#X obj 576 155 tgl 20 0 empty empty empty 0 -10 0 12 #fcfcfc #000000 #000000 0 1;
#X obj 574 207 random 1578;
#X obj 576 180 metro 250;
#X obj 650 179 r frames2;
#X obj 484 418 s frames2;
#X obj 270 468 r out1;
#X obj 346 471 r out2;
#X obj 294 321 r fctrl1;
#X obj 546 331 r fctrl2;
#X obj 287 225 s fctrl1;
#X obj 574 232 s fctrl2;
#X obj 245 51 seeker;
#X obj 245 24 r frames1;
#X obj 245 106 s fctrl1;
#X obj 460 34 r frames2;
#X obj 460 63 seeker;
#X obj 460 118 s fctrl2;
#X obj 424 363 s out2;
#X msg 714 249 open ../content/Omnibus.mp4;
#X msg 9 223 open ../content/ok.mp4;
#X msg 68 119 dimen 1280 720;
#X obj 352 586 rectangle 7.18 4;
#X msg 72 150 dimen 960 540;
#X msg 103 182 dimen 360 240;
#X obj 696 304 chead;
#X obj 692 424 s out1;
#X obj 968 418 s frames1;
#X obj 970 267 r fctrl1;
#X connect 1 0 0 0;
#X connect 2 0 0 0;
#X connect 3 0 5 0;
#X connect 4 0 3 0;
#X connect 5 1 9 0;
#X connect 6 0 5 0;
#X connect 7 0 6 0;
#X connect 8 0 7 0;
#X connect 9 0 10 0;
#X connect 9 1 11 0;
#X connect 9 2 12 0;
#X connect 13 0 56 0;
#X connect 14 0 5 0;
#X connect 15 0 14 0;
#X connect 16 0 31 0;
#X connect 17 0 19 0;
#X connect 18 0 17 0;
#X connect 19 0 52 0;
#X connect 19 1 23 0;
#X connect 20 0 19 0;
#X connect 21 0 20 0;
#X connect 22 0 21 0;
#X connect 23 0 24 0;
#X connect 23 1 25 0;
#X connect 23 2 26 0;
#X connect 24 0 39 0;
#X connect 27 0 19 0;
#X connect 28 0 27 0;
#X connect 29 0 13 0;
#X connect 30 0 44 0;
#X connect 31 0 30 0;
#X connect 32 0 29 2;
#X connect 34 0 30 1;
#X connect 35 0 37 0;
#X connect 36 0 45 0;
#X connect 37 0 36 0;
#X connect 38 0 36 1;
#X connect 40 0 29 0;
#X connect 41 0 29 1;
#X connect 43 0 19 1;
#X connect 46 0 48 0;
#X connect 47 0 46 1;
#X connect 49 0 50 1;
#X connect 50 0 51 0;
#X connect 53 0 59 0;
#X connect 54 0 19 0;
#X connect 55 0 0 0;
#X connect 57 0 0 0;
#X connect 58 0 0 0;
#X connect 59 0 60 0;
#X connect 59 1 61 0;
#X connect 62 0 59 1;
