#N canvas 4 38 1354 690 12;
#X obj 199 45 loadbang;
#X msg 199 70 60;
#X floatatom 196 97 5 0 0 0 - - - 0;
#X obj 179 122 bng 20 250 50 0 empty empty empty 0 -10 0 12 #fcfcfc #000000 #000000;
#X obj 181 165 /;
#X floatatom 181 190 5 0 0 0 - - - 0;
#X obj 181 214 send 4th_time;
#X obj 115 54 loadbang;
#X msg 115 79 60000;
#X obj 112 531 receive 4th_time;
#X floatatom 112 581 5 0 0 0 - - - 0;
#X obj 62 531 r ON;
#X obj 80 621 metro;
#X obj 80 651 bng 30 250 50 0 empty empty empty 0 -10 0 12 #fcfcfc #00faff #000000;
#X obj 112 556 / 2;
#X obj 138 619 send 8th_time;
#X obj 80 692 send 8th_note;
#X obj 327 533 receive 4th_time;
#X floatatom 327 583 5 0 0 0 - - - 0;
#X obj 277 533 r ON;
#X obj 295 623 metro;
#X obj 295 653 bng 30 250 50 0 empty empty empty 0 -10 0 12 #fcfcfc #00faff #000000;
#X obj 327 558 / 4;
#X obj 353 621 send 16th_time;
#X obj 295 694 send 16th_note;
#X obj 376 173 tgl 30 0 empty empty empty 0 -10 0 12 #fcfcfc #000000 #000000 0 1;
#X obj 376 211 s ON;
#X obj 564 89 r ON;
#X obj 564 114 sel 0;
#X obj 564 139 bng 20 250 50 0 empty empty empty 0 -10 0 12 #fcfcfc #000000 #000000;
#X msg 564 164 -1;
#X obj 614 177 int 1;
#X floatatom 614 202 5 0 0 0 - - - 0;
#X obj 614 226 % 2;
#X obj 614 251 + 1;
#X obj 614 276 sel 1;
#X obj 614 301 bng 20 250 50 0 empty empty empty 0 -10 0 12 #fcfcfc #000000 #000000;
#X obj 614 326 tgl 20 0 empty empty empty 0 -10 0 12 #fcfcfc #000000 #000000 0 1;
#X obj 614 351 s Chord;
#X obj 614 139 bng 30 250 50 0 empty empty empty 0 -10 0 12 #fcfcfc #000000 #000000;
#X obj 690 202 + 1;
#X obj 499 228 r ON;
#X obj 499 253 sel 0;
#X msg 544 281 1;
#X obj 544 254 loadbang;
#X obj 491 115 loadbang;
#X text 512 142 reset;
#X text 593 36 sequencer;
#X text 193 261 CLOCKS;
#X text 165 13 metronome;
#X obj 517 437 r Chord;
#X obj 517 462 tgl 20 0 empty empty empty 0 -10 0 12 #fcfcfc #000000 #000000 0 1;
#X obj 517 487 sel 0;
#X obj 517 512 bng 20 250 50 0 empty empty empty 0 -10 0 12 #fcfcfc #000000 #000000;
#X floatatom 517 584 5 0 0 0 - - - 0;
#X obj 517 608 phasor~;
#X obj 517 633 lop~ 100;
#X obj 517 689 *~;
#X obj 517 714 send~ Bass;
#X obj 549 512 bng 20 250 50 0 empty empty empty 0 -10 0 12 #fcfcfc #000000 #000000;
#X msg 517 543 130.81;
#X msg 580 545 87.31;
#X obj 650 481 r ON;
#X obj 650 506 sel 1;
#X obj 650 531 bng 30 250 50 0 empty empty empty 0 -10 0 12 #fcfcfc #000000 #000000;
#X msg 650 569 1 500;
#X obj 650 652 line;
#X floatatom 743 529 5 0 0 0 - - - 0;
#X obj 743 553 - 100;
#X obj 711 582 delay;
#X msg 711 619 0 100;
#X obj 791 530 r ON;
#X obj 791 555 sel 0;
#X obj 791 580 delay 5;
#X obj 743 504 * 2;
#X floatatom 650 680 5 0 0 0 - - - 0;
#X obj 614 114 r 8th_note;
#X obj 743 479 receive 4th_note;
#X text 628 400 bass;
#X text 694 447 Envelop;
#X obj 909 55 r whole_note;
#X obj 1056 262 tanh~;
#X obj 46 287 cnv 20 200 210 empty empty empty 20 12 0 12 #c6feff #404040 0;
#X obj 103 300 receive 4th_time;
#X obj 103 325 * 4;
#X floatatom 103 350 5 0 0 0 - - - 0;
#X obj 129 388 send whole_time;
#X obj 53 300 r ON;
#X obj 71 390 metro;
#X obj 71 420 bng 30 250 50 0 empty empty empty 0 -10 0 12 #fcfcfc #e3c6ff #000000;
#X obj 71 461 send whole_note;
#X obj 269 285 cnv 20 200 210 empty empty empty 20 12 0 12 #c7c6ff #404040 0;
#X obj 328 298 receive 4th_time;
#X floatatom 328 348 5 0 0 0 - - - 0;
#X obj 278 298 r ON;
#X obj 296 388 metro;
#X obj 296 418 bng 30 250 50 0 empty empty empty 0 -10 0 12 #ffffff #ffc7c6 #000000;
#X obj 328 323 * 1;
#X obj 296 459 send 4th_note;
#X obj 1048 544 dac~;
#X obj 1047 432 r~ Bass;
#X obj 1048 487 *~;
#X floatatom 1128 462 5 0 0 0 - - - 0;
#X obj 1124 419 hsl 170 20 0 1 0 0 empty empty empty -2 -10 0 12 #fcfcfc #000000 #000000 0 1;
#X connect 0 0 1 0;
#X connect 1 0 2 0;
#X connect 2 0 3 0;
#X connect 2 0 4 1;
#X connect 3 0 4 0;
#X connect 4 0 5 0;
#X connect 5 0 6 0;
#X connect 7 0 8 0;
#X connect 8 0 4 0;
#X connect 9 0 14 0;
#X connect 10 0 12 1;
#X connect 10 0 15 0;
#X connect 11 0 12 0;
#X connect 12 0 13 0;
#X connect 13 0 16 0;
#X connect 14 0 10 0;
#X connect 17 0 22 0;
#X connect 18 0 20 1;
#X connect 18 0 23 0;
#X connect 19 0 20 0;
#X connect 20 0 21 0;
#X connect 21 0 24 0;
#X connect 22 0 18 0;
#X connect 25 0 26 0;
#X connect 27 0 28 0;
#X connect 28 0 29 0;
#X connect 29 0 30 0;
#X connect 30 0 31 0;
#X connect 31 0 32 0;
#X connect 31 0 40 0;
#X connect 32 0 33 0;
#X connect 33 0 34 0;
#X connect 34 0 35 0;
#X connect 35 0 36 0;
#X connect 36 0 37 0;
#X connect 37 0 38 0;
#X connect 39 0 31 0;
#X connect 40 0 31 1;
#X connect 41 0 42 0;
#X connect 42 0 43 0;
#X connect 43 0 37 0;
#X connect 44 0 43 0;
#X connect 45 0 29 0;
#X connect 50 0 51 0;
#X connect 51 0 52 0;
#X connect 52 0 53 0;
#X connect 52 1 59 0;
#X connect 53 0 60 0;
#X connect 54 0 55 0;
#X connect 55 0 56 0;
#X connect 56 0 57 0;
#X connect 57 0 58 0;
#X connect 59 0 61 0;
#X connect 60 0 54 0;
#X connect 61 0 54 0;
#X connect 62 0 63 0;
#X connect 63 0 64 0;
#X connect 64 0 65 0;
#X connect 65 0 66 0;
#X connect 66 0 57 1;
#X connect 66 0 75 0;
#X connect 67 0 68 0;
#X connect 68 0 69 1;
#X connect 69 0 70 0;
#X connect 70 0 66 0;
#X connect 71 0 72 0;
#X connect 72 0 73 0;
#X connect 73 0 70 0;
#X connect 74 0 67 0;
#X connect 76 0 39 0;
#X connect 77 0 74 0;
#X connect 83 0 84 0;
#X connect 84 0 85 0;
#X connect 85 0 86 0;
#X connect 85 0 88 1;
#X connect 87 0 88 0;
#X connect 88 0 89 0;
#X connect 89 0 90 0;
#X connect 92 0 97 0;
#X connect 93 0 95 1;
#X connect 94 0 95 0;
#X connect 95 0 96 0;
#X connect 96 0 98 0;
#X connect 97 0 93 0;
#X connect 100 0 101 0;
#X connect 101 0 99 0;
#X connect 101 0 99 1;
#X connect 102 0 101 1;
#X connect 103 0 102 0;
