#N canvas 0 34 1600 834 12;
#X obj 208 45 loadbang;
#X msg 208 70 60;
#X floatatom 205 97 5 0 0 0 - - - 0;
#X obj 181 165 /;
#X floatatom 181 190 5 0 0 0 - - - 0;
#X obj 181 214 send 4th_time;
#X obj 115 54 loadbang;
#X msg 115 79 60000;
#X obj 111 588 receive 4th_time;
#X floatatom 111 638 5 0 0 0 - - - 0;
#X obj 61 588 r ON;
#X obj 79 678 metro;
#X obj 79 708 bng 30 250 50 0 empty empty empty 0 -10 0 12 #fcfcfc #00faff #000000;
#X obj 111 613 / 2;
#X obj 137 676 send 8th_time;
#X obj 79 749 send 8th_note;
#X obj 326 590 receive 4th_time;
#X floatatom 326 640 5 0 0 0 - - - 0;
#X obj 276 590 r ON;
#X obj 294 680 metro;
#X obj 294 710 bng 30 250 50 0 empty empty empty 0 -10 0 12 #fcfcfc #00faff #000000;
#X obj 326 615 / 4;
#X obj 352 678 send 16th_time;
#X obj 294 751 send 16th_note;
#X obj 376 173 tgl 30 0 empty empty empty 0 -10 0 12 #fcfcfc #000000 #000000 0 1;
#X obj 376 211 s ON;
#X obj 564 89 r ON;
#X obj 564 114 sel 0;
#X obj 564 139 bng 20 250 50 0 empty empty empty 0 -10 0 12 #fcfcfc #000000 #000000;
#X msg 564 164 -1;
#X obj 614 177 int 1;
#X floatatom 614 202 5 0 0 0 - - - 0;
#X obj 615 226 % 2;
#X obj 614 251 + 1;
#X obj 614 276 sel 1;
#X obj 614 301 bng 20 250 50 0 empty empty empty 0 -10 0 12 #fcfcfc #000000 #000000;
#X obj 614 326 tgl 20 0 empty empty empty 0 -10 0 12 #fcfcfc #000000 #000000 0 1;
#X obj 614 351 s Chord;
#X obj 614 139 bng 30 250 50 0 empty empty empty 0 -10 0 12 #fcfcfc #000000 #000000;
#X obj 670 178 + 1, f 4;
#X obj 499 228 r ON;
#X obj 499 253 sel 0;
#X msg 544 281 1;
#X obj 544 254 loadbang;
#X obj 491 115 loadbang;
#X text 512 142 reset;
#X text 593 36 sequencer;
#X text 218 277 CLOCKS;
#X text 165 13 metronome;
#X obj 517 437 r Chord;
#X obj 517 462 tgl 20 0 empty empty empty 0 -10 0 12 #fcfcfc #000000 #000000 0 1;
#X obj 517 487 sel 0;
#X obj 517 512 bng 20 250 50 0 empty empty empty 0 -10 0 12 #fcfcfc #000000 #000000;
#X floatatom 517 584 5 0 0 0 - - - 0;
#X obj 517 608 phasor~;
#X obj 517 633 lop~ 100;
#X obj 517 689 *~;
#X obj 517 714 send~ Bass;
#X obj 549 512 bng 20 250 50 0 empty empty empty 0 -10 0 12 #fcfcfc #000000 #000000;
#X msg 517 543 130.81;
#X msg 580 545 87.31;
#X obj 650 481 r ON;
#X obj 650 506 sel 1;
#X obj 650 531 bng 30 250 50 0 empty empty empty 0 -10 0 12 #fcfcfc #000000 #000000;
#X msg 650 569 1 500;
#X obj 650 652 line;
#X floatatom 743 529 5 0 0 0 - - - 0;
#X obj 743 553 - 100;
#X obj 711 582 delay;
#X msg 711 619 0 100;
#X obj 791 530 r ON;
#X obj 791 555 sel 0;
#X obj 791 580 delay 5;
#X obj 743 504 * 2;
#X floatatom 650 680 5 0 0 0 - - - 0;
#X text 628 400 bass;
#X text 694 447 Envelop;
#X obj 859 21 r whole_note;
#X obj 45 344 cnv 20 200 210 empty empty empty 20 12 0 12 #c6feff #404040 0;
#X obj 102 357 receive 4th_time;
#X obj 102 382 * 4;
#X floatatom 102 407 5 0 0 0 - - - 0;
#X obj 128 445 send whole_time;
#X obj 52 357 r ON;
#X obj 70 447 metro;
#X obj 70 477 bng 30 250 50 0 empty empty empty 0 -10 0 12 #c6feff #e3c6ff #000000;
#X obj 70 518 send whole_note;
#X obj 268 342 cnv 20 200 210 empty empty empty 20 12 0 12 #c7c6ff #404040 0;
#X obj 327 355 receive 4th_time;
#X floatatom 327 405 5 0 0 0 - - - 0;
#X obj 277 355 r ON;
#X obj 295 445 metro;
#X obj 295 475 bng 30 250 50 0 empty empty empty 0 -10 0 12 #ffffff #ffc7c6 #000000;
#X obj 327 380 * 1;
#X obj 295 516 send 4th_note;
#X obj 863 433 r~ Bass;
#X obj 992 108 bng 30 250 50 0 empty empty empty 0 -10 0 12 #fcfcfc #000000 #000000;
#X obj 1076 84 r whole_time;
#X floatatom 1076 109 5 0 0 0 - - - 0;
#X obj 1076 133 - 500;
#X obj 1127 109 r ON;
#X obj 1127 134 sel 0;
#X obj 1127 159 delay 5;
#X msg 1044 214 0 500;
#X obj 1044 173 delay;
#X obj 991 275 line;
#X obj 859 54 bng 30 250 50 0 empty empty empty 0 -10 0 12 #fcfcfc #000000 #000000;
#X msg 992 215 1 500;
#X floatatom 858 118 5 0 0 0 - - - 0;
#X obj 858 217 phasor~;
#X obj 858 260 lop~ 100;
#X obj 858 320 *~;
#X obj 927 166 * 1.001;
#X floatatom 927 191 5 0 0 0 - - - 0;
#X obj 927 215 phasor~;
#X obj 858 382 s~ Ambient_Pad;
#X obj 858 345 *~ 0.5;
#X text 986 20 ambient melody;
#X text 933 142 detune;
#X obj 859 89 chords_scale;
#X obj 930 433 r~ Ambient_Pad;
#X obj 983 549 freeverb~;
#X msg 1076 494 wet \$1;
#X msg 1134 494 dry \$1;
#X obj 1068 423 hsl 128 15 0 1 0 0 empty empty empty -2 -8 0 10 #fcfcfc #000000 #000000 0 1;
#N canvas 0 34 1600 834 inv 0;
#X obj 154 69 inlet;
#X obj 154 179 outlet;
#X msg 154 124 1;
#X obj 154 97 t b f;
#X obj 154 151 -;
#X connect 0 0 3 0;
#X connect 2 0 4 0;
#X connect 3 0 2 0;
#X connect 3 1 4 1;
#X connect 4 0 1 0;
#X restore 1133 467 pd inv;
#X floatatom 1191 494 5 0 0 0 - - - 0;
#X floatatom 1082 467 5 0 0 0 - - - 0;
#X msg 1014 469 print;
#X obj 997 652 outputs~;
#X text 332 538 seminima;
#X text 121 771 colcheia;
#X text 309 778 semicolcheia;
#X obj 181 124 t b f;
#X text 143 545 semibreve;
#X obj 685 604 bng 19 250 50 0 empty empty empty 0 -10 0 12 #fcfcfc #000000 #000000;
#X obj 743 479 receive whole_time;
#X obj 614 114 r whole_note;
#X text 47 303 time = valor numérico;
#X text 44 322 note = bang de fato;
#X connect 0 0 1 0;
#X connect 1 0 2 0;
#X connect 2 0 133 0;
#X connect 3 0 4 0;
#X connect 4 0 5 0;
#X connect 6 0 7 0;
#X connect 7 0 3 0;
#X connect 8 0 13 0;
#X connect 9 0 11 1;
#X connect 9 0 14 0;
#X connect 10 0 11 0;
#X connect 11 0 12 0;
#X connect 12 0 15 0;
#X connect 13 0 9 0;
#X connect 16 0 21 0;
#X connect 17 0 19 1;
#X connect 17 0 22 0;
#X connect 18 0 19 0;
#X connect 19 0 20 0;
#X connect 20 0 23 0;
#X connect 21 0 17 0;
#X connect 24 0 25 0;
#X connect 26 0 27 0;
#X connect 27 0 28 0;
#X connect 28 0 29 0;
#X connect 29 0 30 0;
#X connect 30 0 31 0;
#X connect 30 0 39 0;
#X connect 31 0 32 0;
#X connect 32 0 33 0;
#X connect 33 0 34 0;
#X connect 34 0 35 0;
#X connect 35 0 36 0;
#X connect 36 0 37 0;
#X connect 38 0 30 0;
#X connect 39 0 30 1;
#X connect 40 0 41 0;
#X connect 41 0 42 0;
#X connect 42 0 36 0;
#X connect 43 0 42 0;
#X connect 44 0 28 0;
#X connect 49 0 50 0;
#X connect 50 0 51 0;
#X connect 51 0 52 0;
#X connect 51 1 58 0;
#X connect 52 0 59 0;
#X connect 53 0 54 0;
#X connect 54 0 55 0;
#X connect 55 0 56 0;
#X connect 56 0 57 0;
#X connect 58 0 60 0;
#X connect 59 0 53 0;
#X connect 60 0 53 0;
#X connect 61 0 62 0;
#X connect 62 0 63 0;
#X connect 63 0 64 0;
#X connect 64 0 65 0;
#X connect 65 0 56 1;
#X connect 65 0 74 0;
#X connect 66 0 67 0;
#X connect 67 0 68 1;
#X connect 68 0 69 0;
#X connect 68 0 135 0;
#X connect 69 0 65 0;
#X connect 70 0 71 0;
#X connect 71 0 72 0;
#X connect 72 0 69 0;
#X connect 73 0 66 0;
#X connect 77 0 96 0;
#X connect 77 0 106 0;
#X connect 79 0 80 0;
#X connect 80 0 81 0;
#X connect 81 0 84 1;
#X connect 81 0 82 0;
#X connect 83 0 84 0;
#X connect 84 0 85 0;
#X connect 85 0 86 0;
#X connect 88 0 93 0;
#X connect 89 0 91 1;
#X connect 90 0 91 0;
#X connect 91 0 92 0;
#X connect 92 0 94 0;
#X connect 93 0 89 0;
#X connect 95 0 129 1;
#X connect 95 0 129 0;
#X connect 96 0 107 0;
#X connect 96 0 104 0;
#X connect 97 0 98 0;
#X connect 98 0 99 0;
#X connect 99 0 104 1;
#X connect 100 0 101 0;
#X connect 101 0 102 0;
#X connect 102 0 103 0;
#X connect 103 0 105 0;
#X connect 104 0 103 0;
#X connect 105 0 111 1;
#X connect 106 0 119 0;
#X connect 107 0 105 0;
#X connect 108 0 109 0;
#X connect 108 0 112 0;
#X connect 109 0 110 0;
#X connect 110 0 111 0;
#X connect 111 0 116 0;
#X connect 112 0 113 0;
#X connect 113 0 114 0;
#X connect 114 0 110 0;
#X connect 116 0 115 0;
#X connect 119 0 108 0;
#X connect 120 0 121 0;
#X connect 120 0 121 1;
#X connect 121 0 129 0;
#X connect 121 1 129 1;
#X connect 122 0 121 0;
#X connect 123 0 121 0;
#X connect 124 0 122 0;
#X connect 124 0 125 0;
#X connect 124 0 127 0;
#X connect 125 0 123 0;
#X connect 125 0 126 0;
#X connect 128 0 121 0;
#X connect 133 0 3 0;
#X connect 133 1 3 1;
#X connect 136 0 73 0;
#X connect 137 0 38 0;
