#N canvas 767 119 394 508 12;
#X obj 130 120 vsl 20 170 128 255 0 0 empty empty empty 0 -9 0 12 #ff0400 #000000 #000000 0 1;
#X floatatom 130 301 5 0 0 0 - - - 0;
#X obj 154 326 bondo 3;
#X obj 144 360 pack f f f;
#X obj 165 120 vsl 20 170 128 255 0 0 empty empty empty 0 -9 0 12 #00ff04 #000000 #000000 0 1;
#X floatatom 172 301 5 0 0 0 - - - 0;
#X obj 198 120 vsl 20 170 128 255 0 0 empty empty empty 0 -9 0 12 #00faff #000000 #000000 0 1;
#X floatatom 215 301 5 0 0 0 - - - 0;
#X obj 91 398 pix_gain;
#X msg 108 362 1;
#X obj 57 361 inlet;
#X obj 90 433 outlet;
#X obj 227 250 bng 40 250 50 0 empty empty empty 0 -10 0 12 #fcfcfc #000000 #000000;
#X text 229 222 reset;
#X msg 267 383 254;
#X obj 227 117 bng 15 250 50 0 empty empty empty 0 -10 0 12 #fcfcfc #000000 #000000;
#X connect 0 0 1 0;
#X connect 1 0 2 0;
#X connect 2 0 3 0;
#X connect 2 1 3 1;
#X connect 2 2 3 2;
#X connect 3 0 8 2;
#X connect 4 0 5 0;
#X connect 5 0 2 1;
#X connect 6 0 7 0;
#X connect 7 0 2 2;
#X connect 8 0 11 0;
#X connect 9 0 8 1;
#X connect 10 0 8 0;
#X connect 12 0 9 0;
#X connect 14 0 8 1;
#X connect 15 0 14 0;
#X coords 0 -1 1 1 170 240 1 110 90;
