#N canvas 178 146 450 380 12;
#X obj 107 36 noise~;
#X obj 107 61 *~ 1;
#X obj 107 86 bp~ 150 4;
#X obj 107 167 clip~ -0.9 0.9;
#X obj 107 256 *~;
#X obj 107 281 *~ 1;
#X obj 107 306 dac~;
#X obj 29 135 *~ 0.1;
#X obj 226 29 bng 20 250 50 0 empty empty empty 0 -10 0 12 #fcfcfc #000000 #000000;
#X msg 226 59 1 5;
#X obj 271 59 delay 5;
#X obj 271 84 bng 20 250 50 0 empty empty empty 0 -10 0 12 #fcfcfc #000000 #000000;
#X msg 271 123 0.25 50;
#X obj 338 124 delay 50;
#X obj 338 149 bng 20 250 50 0 empty empty empty 0 -10 0 12 #fcfcfc #000000 #000000;
#X msg 338 174 0 300;
#X floatatom 60 108 5 0 1 0 - - - 0;
#X text 136 8 Bass Kick;
#X obj 107 142 *~ 20;
#X obj 29 79 hip~ 8000;
#X obj 226 212 line~;
#X obj 326 224 loadbang;
#X obj 326 249 tgl 20 0 empty empty empty 0 -10 0 12 #fcfcfc #000000 #000000 0 1;
#X obj 326 274 metro 20;
#X obj 326 299 snapshot~;
#X floatatom 326 324 5 0 0 0 - - - 0;
#X connect 0 0 1 0;
#X connect 0 0 19 0;
#X connect 1 0 2 0;
#X connect 2 0 18 0;
#X connect 3 0 4 0;
#X connect 4 0 5 0;
#X connect 5 0 6 0;
#X connect 5 0 6 1;
#X connect 7 0 3 0;
#X connect 8 0 9 0;
#X connect 8 0 10 0;
#X connect 9 0 20 0;
#X connect 10 0 11 0;
#X connect 11 0 12 0;
#X connect 11 0 13 0;
#X connect 12 0 20 0;
#X connect 13 0 14 0;
#X connect 14 0 15 0;
#X connect 15 0 20 0;
#X connect 16 0 7 1;
#X connect 18 0 3 0;
#X connect 19 0 7 0;
#X connect 20 0 4 1;
#X connect 20 0 24 0;
#X connect 21 0 22 0;
#X connect 22 0 23 0;
#X connect 23 0 24 0;
#X connect 24 0 25 0;
