#N canvas 4 38 1588 822 12;
#X obj 62 417 audio_loader;
#X msg 760 140 0 \, destroy;
#X text 739 54 Video;
#X obj 718 77 cnv 15 20 20 empty empty 1 6 10 0 14 #fcc4c4 #404040 0;
#X msg 767 194 frame \$1;
#X obj 743 261 gemwin;
#X obj 513 509 pix_texture;
#X obj 513 535 rectangle 7.18 4;
#X obj 513 247 glitch_psico;
#X obj 515 70 video_loader;
#X obj 767 174 r framerate;
#X listbox 897 158 20 0 0 0 - - - 0;
#X obj 899 96 r width;
#X obj 964 98 r height;
#X obj 902 132 pack f f;
#X msg 894 192 dimen \$1 \$2;
#X obj 846 244 gemkeyboard;
#X text 958 346 9 (Linux);
#X text 958 332 53 (OSX);
#X text 958 359 27 (Windows);
#X text 811 331 KeyCodes for "Esc":;
#X obj 846 298 s destroy;
#X obj 760 119 r destroy;
#X obj 846 266 sel 53 9 27 66;
#X text 824 57 comment;
#X msg 744 88 title jojo \, create \, 1;
#N canvas 835 251 647 467 file_handler 0;
#X obj 36 265 format open ../content/%s.mp4;
#X obj 59 213 format ../content/%s.wav;
#X obj 59 238 s audio_file;
#X obj 36 290 s video_file;
#X obj 36 70 inlet;
#X obj 102 132 s halt;
#X obj 36 102 t a a b;
#X obj 81 184 s repeat;
#X obj 81 159 delay 0.5 1 sec;
#X connect 0 0 3 0;
#X connect 1 0 2 0;
#X connect 4 0 6 0;
#X connect 6 0 0 0;
#X connect 6 1 1 0;
#X connect 6 2 5 0;
#X connect 6 2 8 0;
#X connect 8 0 7 0;
#X restore 62 385 pd file_handler;
#X obj 62 356 receive file-bus;
#X msg 62 49 \; file-bus sync;
#X msg 61 121 \; file-bus proj_2;
#X msg 65 229 \; file-bus prot, f 14;
#X msg 65 189 \; file-bus ok;
#X connect 1 0 5 0;
#X connect 4 0 5 0;
#X connect 6 0 7 0;
#X connect 8 0 6 0;
#X connect 9 0 8 0;
#X connect 10 0 4 0;
#X connect 11 0 15 0;
#X connect 12 0 14 0;
#X connect 13 0 14 1;
#X connect 14 0 11 0;
#X connect 15 0 5 0;
#X connect 16 0 23 0;
#X connect 22 0 1 0;
#X connect 23 0 21 0;
#X connect 23 1 21 0;
#X connect 23 2 21 0;
#X connect 23 3 21 0;
#X connect 25 0 5 0;
#X connect 27 0 26 0;
