#N canvas 78 35 1162 710 12;
#X obj 62 417 audio_loader;
#X msg 760 140 0 \, destroy;
#X text 739 54 Video;
#X obj 718 77 cnv 15 20 20 empty empty 1 6 10 0 14 #fcc4c4 #404040 0;
#X msg 767 194 frame \$1;
#X obj 743 261 gemwin;
#X obj 512 603 pix_texture;
#X obj 512 629 rectangle 7.18 4;
#X obj 513 247 glitch_psico;
#X obj 515 70 video_loader;
#X msg 73 220 open ../content/sync.mp4;
#X msg 91 167 ../content/sync.wav;
#X obj 767 174 r framerate;
#X obj 73 245 s video_file;
#X obj 91 193 s audio_file;
#X obj 73 111 bng 20 250 50 0 empty empty empty 0 -10 0 12 #fcfcfc #000000 #000000;
#X obj 279 248 s video_file;
#X obj 297 196 s audio_file;
#X obj 279 114 bng 20 250 50 0 empty empty empty 0 -10 0 12 #fcfcfc #000000 #000000;
#X msg 297 170 ../content/proj_2.wav;
#X msg 279 223 open ../content/proj_2.mp4;
#X obj 279 140 t b b b;
#X obj 349 140 s halt;
#X obj 74 137 t b b b;
#X obj 140 136 s halt;
#X listbox 897 158 20 0 0 0 - - - 0;
#X obj 899 96 r width;
#X obj 964 98 r height;
#X obj 902 132 pack f f;
#X msg 894 192 dimen \$1 \$2;
#X obj 846 244 gemkeyboard;
#X text 958 346 9 (Linux);
#X text 958 332 53 (OSX);
#X text 958 359 27 (Windows);
#X text 811 331 KeyCodes for "Esc":;
#X obj 846 298 s destroy;
#X obj 760 119 r destroy;
#X obj 846 266 sel 53 9 27 66;
#X text 824 57 comment;
#X msg 744 88 title jojo \, create \, 1;
#X connect 1 0 5 0;
#X connect 4 0 5 0;
#X connect 6 0 7 0;
#X connect 8 0 6 0;
#X connect 9 0 8 0;
#X connect 10 0 13 0;
#X connect 11 0 14 0;
#X connect 12 0 4 0;
#X connect 15 0 23 0;
#X connect 18 0 21 0;
#X connect 19 0 17 0;
#X connect 20 0 16 0;
#X connect 21 0 20 0;
#X connect 21 1 19 0;
#X connect 21 2 22 0;
#X connect 23 0 10 0;
#X connect 23 1 11 0;
#X connect 23 2 24 0;
#X connect 25 0 29 0;
#X connect 26 0 28 0;
#X connect 27 0 28 1;
#X connect 28 0 25 0;
#X connect 29 0 5 0;
#X connect 30 0 37 0;
#X connect 36 0 1 0;
#X connect 37 0 35 0;
#X connect 37 1 35 0;
#X connect 37 2 35 0;
#X connect 37 3 35 0;
#X connect 39 0 5 0;
