#N canvas 4 904 700 724 12;
#X floatatom 142 137 5 0 0 0 - - - 0;
#X obj 142 244 dac~;
#X text 187 137 frequency;
#X obj 142 164 osc~ 440;
#X floatatom 342 123 8 0 0 0 - - - 0;
#X text 406 123 amplitude;
#X obj 342 185 line~;
#X obj 345 94 hsl 162 19 0 1 0 0 empty empty empty -2 -10 0 12 #dfdfdf #000000 #000000 0 1;
#X obj 342 147 pack 0 50;
#X obj 430 214 tgl 20 0 empty empty empty 0 -10 0 12 #fcfcfc #000000 #000000 0 1;
#X obj 430 239 metro 100;
#X obj 430 264 snapshot~;
#X floatatom 430 289 5 0 0 0 - - - 0;
#X listbox 430 182 9 0 0 0 - - - 0;
#X obj 142 205 expr~ $v1 * $v2;
#X connect 0 0 3 0;
#X connect 3 0 14 0;
#X connect 4 0 8 0;
#X connect 6 0 11 0;
#X connect 6 0 14 1;
#X connect 7 0 4 0;
#X connect 8 0 6 0;
#X connect 8 0 13 0;
#X connect 9 0 10 0;
#X connect 10 0 11 0;
#X connect 11 0 12 0;
#X connect 14 0 1 0;
#X connect 14 0 1 1;
