#N canvas 4 38 821 822 12;
#X floatatom 142 137 5 0 0 0 - - - 0;
#X obj 142 244 dac~;
#X text 187 137 frequency;
#X obj 142 164 osc~ 440;
#X floatatom 342 123 8 0 0 0 - - - 0;
#X text 406 123 amplitude;
#X obj 342 175 line~;
#X obj 142 205 expr~ $v1 * pow($v2 / 127 \, 4);
#X msg 342 149 \$1 20;
#X obj 345 94 hsl 162 19 0 1 0 0 empty empty empty -2 -10 0 12 #dfdfdf #000000 #000000 0 1;
#X connect 0 0 3 0;
#X connect 3 0 7 0;
#X connect 4 0 8 0;
#X connect 6 0 7 1;
#X connect 7 0 1 0;
#X connect 7 0 1 1;
#X connect 8 0 6 0;
#X connect 9 0 4 0;
