#N canvas 0 34 1600 834 12;
#X floatatom 551 220 5 0 0 0 - - - 0;
#X obj 551 195 midiin;
#X obj 526 273 unpack f f f;
#X obj 61 51 notein;
#X floatatom 61 76 5 0 0 0 - - - 0;
#X obj 61 100 mtof;
#X floatatom 61 125 5 0 0 0 - - - 0;
#X obj 61 167 osc~;
#X obj 60 273 outputs~;
#X obj 138 187 vline~;
#X obj 61 216 *~;
#X obj 197 188 tgl 20 0 empty empty empty 0 -10 0 12 #fcfcfc #000000 #000000 0 1;
#X obj 197 213 metro 100;
#X obj 197 238 snapshot~;
#X floatatom 197 263 5 0 0 0 - - - 0;
#X msg 138 162 1 200 \, 0 500 200;
#X obj 368 64 ctlin;
#X floatatom 346 124 5 0 0 0 - - - 0;
#X floatatom 491 120 5 0 0 0 - - - 0;
#X floatatom 411 128 5 0 0 0 - - - 0;
#X obj 358 265 ctlin 22;
#X floatatom 358 290 5 0 0 0 - - - 0;
#X obj 329 203 makenote;
#X connect 1 0 0 0;
#X connect 3 0 4 0;
#X connect 4 0 5 0;
#X connect 5 0 6 0;
#X connect 6 0 7 0;
#X connect 6 0 15 0;
#X connect 7 0 10 0;
#X connect 9 0 10 1;
#X connect 9 0 13 0;
#X connect 10 0 8 0;
#X connect 10 0 8 1;
#X connect 11 0 12 0;
#X connect 12 0 13 0;
#X connect 13 0 14 0;
#X connect 15 0 9 0;
#X connect 16 0 17 0;
#X connect 16 1 19 0;
#X connect 16 2 18 0;
#X connect 20 0 21 0;
