#N canvas 833 38 759 822 12;
#X declare -stdpath ./;
#X obj 102 137 +~;
#X obj 102 184 cos~;
#X obj 102 232 output~;
#X obj 97 310 declare -stdpath ./;
#X floatatom 102 57 5 0 0 0 - - - 0;
#X obj 102 98 phasor~ 400;
#X obj 217 98 osc~ 50;
#X obj 217 149 *~;
#X obj 294 173 line~;
#X msg 294 144 \$1 10;
#X floatatom 294 113 8 0 0 0 - - - 0;
#X obj 297 84 hsl 162 19 0 1 0 0 empty empty empty -2 -10 0 12 #dfdfdf #000000 #000000 0 1;
#X obj 294 27 loadbang;
#X msg 294 56 0.5;
#X floatatom 217 57 5 0 0 0 - - - 0;
#X text 96 36 carrier;
#X text 203 34 modulator;
#X text 356 114 index;
#X text 283 222 This is a simple phase modulation patch., f 22;
#X connect 0 0 1 0;
#X connect 1 0 2 0;
#X connect 4 0 5 0;
#X connect 5 0 0 0;
#X connect 6 0 7 0;
#X connect 7 0 0 1;
#X connect 8 0 7 1;
#X connect 9 0 8 0;
#X connect 10 0 9 0;
#X connect 11 0 10 0;
#X connect 12 0 13 0;
#X connect 13 0 11 0;
#X connect 14 0 6 0;
