#N canvas 6 40 821 829 12;
#X obj 120 173 sel 0;
#X obj 120 198 bng 20 250 50 0 empty empty empty 0 -10 0 12 #fcfcfc
#000000 #000000;
#X obj 49 173 loadbang;
#X obj 173 172 metro;
#X obj 173 197 bng 20 250 50 0 empty empty empty 0 -10 0 12 #fcfcfc
#000000 #000000;
#X obj 173 222 int 1;
#X floatatom 173 259 5 0 0 0 - - -, f 5;
#X obj 173 330 + 1;
#X floatatom 173 355 5 0 0 0 - - -, f 5;
#X obj 212 84 loadbang;
#X msg 212 109 375;
#X floatatom 150 105 5 0 0 0 - - -, f 5;
#X obj 275 283 + 1;
#X obj 58 477 bng 20 250 50 0 empty empty empty 0 -10 0 12 #fcfcfc
#000000 #000000;
#X obj 58 502 s one;
#X obj 110 477 bng 20 250 50 0 empty empty empty 0 -10 0 12 #fcfcfc
#000000 #000000;
#X obj 161 477 bng 20 250 50 0 empty empty empty 0 -10 0 12 #fcfcfc
#000000 #000000;
#X obj 226 477 bng 20 250 50 0 empty empty empty 0 -10 0 12 #fcfcfc
#000000 #000000;
#X obj 283 477 bng 20 250 50 0 empty empty empty 0 -10 0 12 #fcfcfc
#000000 #000000;
#X obj 341 477 bng 20 250 50 0 empty empty empty 0 -10 0 12 #fcfcfc
#000000 #000000;
#X obj 389 475 bng 20 250 50 0 empty empty empty 0 -10 0 12 #fcfcfc
#000000 #000000;
#X obj 452 476 bng 20 250 50 0 empty empty empty 0 -10 0 12 #fcfcfc
#000000 #000000;
#X obj 110 502 s two;
#X obj 226 502 s four;
#X obj 283 502 s five;
#X obj 341 502 s six;
#X obj 390 502 s seven;
#X obj 452 501 s eight;
#X text 78 198 reset;
#X obj 161 502 s three;
#X msg 120 223 -1;
#X obj 105 104 tgl 35 0 empty empty empty 0 -10 0 12 #c6ffc7 #000000
#000000 0 1;
#X obj 172 409 sel 1 2 3 4 5 6 7 8 9 10 11 12 13 14 15 16;
#X obj 35 562 bng 20 250 50 0 empty empty empty 0 -10 0 12 #fcfcfc
#000000 #000000;
#X obj 87 562 bng 20 250 50 0 empty empty empty 0 -10 0 12 #fcfcfc
#000000 #000000;
#X obj 138 562 bng 20 250 50 0 empty empty empty 0 -10 0 12 #fcfcfc
#000000 #000000;
#X obj 203 562 bng 20 250 50 0 empty empty empty 0 -10 0 12 #fcfcfc
#000000 #000000;
#X obj 274 563 bng 20 250 50 0 empty empty empty 0 -10 0 12 #fcfcfc
#000000 #000000;
#X obj 360 565 bng 20 250 50 0 empty empty empty 0 -10 0 12 #fcfcfc
#000000 #000000;
#X obj 444 564 bng 20 250 50 0 empty empty empty 0 -10 0 12 #fcfcfc
#000000 #000000;
#X obj 520 565 bng 20 250 50 0 empty empty empty 0 -10 0 12 #fcfcfc
#000000 #000000;
#X obj 35 587 s nine;
#X obj 87 587 s ten;
#X obj 138 587 s eleven;
#X obj 203 587 s twelve;
#X obj 274 588 s thirteen;
#X obj 360 590 s fourteen;
#X obj 444 591 s fifteen;
#X obj 520 590 s sixteen;
#X obj 173 305 % 16;
#X obj 53 285 % 32;
#X obj 53 310 + 1;
#X floatatom 53 335 5 0 0 0 - - -, f 5;
#X obj 53 359 sel 1;
#X obj 53 384 bng 20 250 50 0 empty empty empty 0 -10 0 12 #fcfcfc
#000000 #000000;
#X obj 53 409 s bus_random;
#X connect 0 0 1 0;
#X connect 1 0 30 0;
#X connect 2 0 1 0;
#X connect 3 0 4 0;
#X connect 4 0 5 0;
#X connect 5 0 6 0;
#X connect 5 0 12 0;
#X connect 6 0 49 0;
#X connect 6 0 50 0;
#X connect 7 0 8 0;
#X connect 8 0 32 0;
#X connect 9 0 10 0;
#X connect 10 0 11 0;
#X connect 11 0 3 1;
#X connect 12 0 5 1;
#X connect 13 0 14 0;
#X connect 15 0 22 0;
#X connect 16 0 29 0;
#X connect 17 0 23 0;
#X connect 18 0 24 0;
#X connect 19 0 25 0;
#X connect 20 0 26 0;
#X connect 21 0 27 0;
#X connect 30 0 5 0;
#X connect 31 0 0 0;
#X connect 31 0 3 0;
#X connect 32 0 13 0;
#X connect 32 1 15 0;
#X connect 32 2 16 0;
#X connect 32 3 17 0;
#X connect 32 4 18 0;
#X connect 32 5 19 0;
#X connect 32 6 20 0;
#X connect 32 7 21 0;
#X connect 32 8 33 0;
#X connect 32 9 34 0;
#X connect 32 10 35 0;
#X connect 32 11 36 0;
#X connect 32 12 37 0;
#X connect 32 13 38 0;
#X connect 32 14 39 0;
#X connect 32 15 40 0;
#X connect 33 0 41 0;
#X connect 34 0 42 0;
#X connect 35 0 43 0;
#X connect 36 0 44 0;
#X connect 37 0 45 0;
#X connect 38 0 46 0;
#X connect 39 0 47 0;
#X connect 40 0 48 0;
#X connect 49 0 7 0;
#X connect 50 0 51 0;
#X connect 51 0 52 0;
#X connect 52 0 53 0;
#X connect 53 0 54 0;
#X connect 54 0 55 0;
#X coords 0 -1 1 1 100 60 1 99 85;
