#N canvas 0 34 1600 834 12;
#X obj 127 214 bng 35 250 50 0 empty empty empty 0 -10 0 12 #c6feff #ff0400 #000000;
#X obj 127 256 spigot;
#X obj 127 281 bng 20 250 50 0 empty empty empty 0 -10 0 12 #e3c6ff #ff8300 #000000;
#X obj 166 214 tgl 35 0 empty empty empty 0 -10 0 12 #e3c6ff #9c00ff #000000 0 1;
#X obj 218 214 bng 35 250 50 0 empty empty empty 0 -10 0 12 #c6feff #ff0400 #000000;
#X obj 218 256 spigot;
#X obj 218 281 bng 20 250 50 0 empty empty empty 0 -10 0 12 #e3c6ff #ff8300 #000000;
#X obj 257 214 tgl 35 0 empty empty empty 0 -10 0 12 #e3c6ff #9c00ff #000000 0 1;
#X obj 317 213 bng 35 250 50 0 empty empty empty 0 -10 0 12 #c6feff #ff0400 #000000;
#X obj 317 255 spigot;
#X obj 317 280 bng 20 250 50 0 empty empty empty 0 -10 0 12 #e3c6ff #ff8300 #000000;
#X obj 356 213 tgl 35 0 empty empty empty 0 -10 0 12 #e3c6ff #9c00ff #000000 0 1;
#X obj 497 213 bng 35 250 50 0 empty empty empty 0 -10 0 12 #c6feff #ff0400 #000000;
#X obj 497 255 spigot;
#X obj 497 280 bng 20 250 50 0 empty empty empty 0 -10 0 12 #e3c6ff #ff8300 #000000;
#X obj 536 213 tgl 35 0 empty empty empty 0 -10 0 12 #e3c6ff #9c00ff #000000 0 1;
#X obj 588 213 bng 35 250 50 0 empty empty empty 0 -10 0 12 #c6feff #ff0400 #000000;
#X obj 588 255 spigot;
#X obj 588 280 bng 20 250 50 0 empty empty empty 0 -10 0 12 #e3c6ff #ff8300 #000000;
#X obj 627 213 tgl 35 0 empty empty empty 0 -10 0 12 #e3c6ff #9c00ff #000000 0 1;
#X obj 677 212 bng 35 250 50 0 empty empty empty 0 -10 0 12 #c6feff #ff0400 #000000;
#X obj 677 254 spigot;
#X obj 677 279 bng 20 250 50 0 empty empty empty 0 -10 0 12 #e3c6ff #ff8300 #000000;
#X obj 716 212 tgl 35 0 empty empty empty 0 -10 0 12 #e3c6ff #9c00ff #000000 0 1;
#X obj 127 188 r two;
#X obj 218 188 r three;
#X obj 317 187 r four;
#X obj 497 187 r six;
#X obj 588 187 r seven;
#X obj 677 186 r eight;
#X obj 737 42 bng 19 250 50 0 empty empty empty 0 -10 0 12 #fcfcfc #000000 #000000;
#X floatatom 169 128 5 0 0 0 - - - 0;
#X obj 169 104 random 100;
#X floatatom 262 128 5 0 0 0 - - - 0;
#X obj 262 104 random 100;
#X floatatom 356 128 5 0 0 0 - - - 0;
#X obj 356 104 random 100;
#X obj 446 103 random 100;
#X floatatom 537 127 5 0 0 0 - - - 0;
#X obj 537 103 random 100;
#X floatatom 630 126 5 0 0 0 - - - 0;
#X obj 630 102 random 100;
#X floatatom 722 125 5 0 0 0 - - - 0;
#X obj 722 101 random 100;
#X obj 731 357 s kick;
#X obj 35 548 r one;
#X obj 35 574 bng 35 250 50 0 empty empty empty 0 -10 0 12 #c6feff #ff0400 #000000;
#X obj 35 616 spigot;
#X obj 35 641 bng 20 250 50 0 empty empty empty 0 -10 0 12 #e3c6ff #ff8300 #000000;
#X obj 74 574 tgl 35 0 empty empty empty 0 -10 0 12 #e3c6ff #9c00ff #000000 0 1;
#X obj 124 573 bng 35 250 50 0 empty empty empty 0 -10 0 12 #c6feff #ff0400 #000000;
#X obj 124 615 spigot;
#X obj 124 640 bng 20 250 50 0 empty empty empty 0 -10 0 12 #e3c6ff #ff8300 #000000;
#X obj 163 573 tgl 35 0 empty empty empty 0 -10 0 12 #e3c6ff #9c00ff #000000 0 1;
#X obj 215 573 bng 35 250 50 0 empty empty empty 0 -10 0 12 #c6feff #ff0400 #000000;
#X obj 215 615 spigot;
#X obj 215 640 bng 20 250 50 0 empty empty empty 0 -10 0 12 #e3c6ff #ff8300 #000000;
#X obj 254 573 tgl 35 0 empty empty empty 0 -10 0 12 #e3c6ff #9c00ff #000000 0 1;
#X obj 314 572 bng 35 250 50 0 empty empty empty 0 -10 0 12 #c6feff #ff0400 #000000;
#X obj 314 614 spigot;
#X obj 314 639 bng 20 250 50 0 empty empty empty 0 -10 0 12 #e3c6ff #ff8300 #000000;
#X obj 353 572 tgl 35 0 empty empty empty 0 -10 0 12 #e3c6ff #9c00ff #000000 0 1;
#X obj 405 573 bng 35 250 50 0 empty empty empty 0 -10 0 12 #c6feff #ff0400 #000000;
#X obj 405 615 spigot;
#X obj 405 640 bng 20 250 50 0 empty empty empty 0 -10 0 12 #e3c6ff #ff8300 #000000;
#X obj 444 573 tgl 35 0 empty empty empty 0 -10 0 12 #e3c6ff #9c00ff #000000 0 1;
#X obj 494 572 bng 35 250 50 0 empty empty empty 0 -10 0 12 #c6feff #ff0400 #000000;
#X obj 494 614 spigot;
#X obj 494 639 bng 20 250 50 0 empty empty empty 0 -10 0 12 #e3c6ff #ff8300 #000000;
#X obj 533 572 tgl 35 0 empty empty empty 0 -10 0 12 #e3c6ff #9c00ff #000000 0 1;
#X obj 585 572 bng 35 250 50 0 empty empty empty 0 -10 0 12 #c6feff #ff0400 #000000;
#X obj 585 614 spigot;
#X obj 585 639 bng 20 250 50 0 empty empty empty 0 -10 0 12 #e3c6ff #ff8300 #000000;
#X obj 624 572 tgl 35 0 empty empty empty 0 -10 0 12 #e3c6ff #9c00ff #000000 0 1;
#X obj 674 571 bng 35 250 50 0 empty empty empty 0 -10 0 12 #c6feff #ff0400 #000000;
#X obj 674 613 spigot;
#X obj 674 638 bng 20 250 50 0 empty empty empty 0 -10 0 12 #e3c6ff #ff8300 #000000;
#X obj 713 571 tgl 35 0 empty empty empty 0 -10 0 12 #e3c6ff #9c00ff #000000 0 1;
#X obj 124 547 r two;
#X obj 215 547 r three;
#X obj 314 546 r four;
#X obj 405 547 r five;
#X obj 494 546 r six;
#X obj 585 546 r seven;
#X obj 674 545 r eight;
#X obj 73 415 r bus_random;
#X obj 73 439 bng 19 250 50 0 empty empty empty 0 -10 0 12 #fcfcfc #000000 #000000;
#X floatatom 73 487 5 0 0 0 - - - 0;
#X obj 73 463 random 100;
#X obj 166 415 r bus_random;
#X obj 166 439 bng 19 250 50 0 empty empty empty 0 -10 0 12 #fcfcfc #000000 #000000;
#X floatatom 166 487 5 0 0 0 - - - 0;
#X obj 166 463 random 100;
#X obj 259 415 r bus_random;
#X obj 259 439 bng 19 250 50 0 empty empty empty 0 -10 0 12 #fcfcfc #000000 #000000;
#X floatatom 259 487 5 0 0 0 - - - 0;
#X obj 259 463 random 100;
#X obj 353 415 r bus_random;
#X obj 353 439 bng 19 250 50 0 empty empty empty 0 -10 0 12 #fcfcfc #000000 #000000;
#X floatatom 353 487 5 0 0 0 - - - 0;
#X obj 353 463 random 100;
#X obj 443 414 r bus_random;
#X obj 443 438 bng 19 250 50 0 empty empty empty 0 -10 0 12 #fcfcfc #000000 #000000;
#X floatatom 443 486 5 0 0 0 - - - 0;
#X obj 443 462 random 100;
#X obj 534 414 r bus_random;
#X obj 534 438 bng 19 250 50 0 empty empty empty 0 -10 0 12 #fcfcfc #000000 #000000;
#X floatatom 534 486 5 0 0 0 - - - 0;
#X obj 534 462 random 100;
#X obj 627 413 r bus_random;
#X obj 627 437 bng 19 250 50 0 empty empty empty 0 -10 0 12 #fcfcfc #000000 #000000;
#X floatatom 627 485 5 0 0 0 - - - 0;
#X obj 627 461 random 100;
#X obj 719 412 r bus_random;
#X obj 719 436 bng 19 250 50 0 empty empty empty 0 -10 0 12 #fcfcfc #000000 #000000;
#X floatatom 719 484 5 0 0 0 - - - 0;
#X obj 719 460 random 100;
#X obj 364 698 s snare;
#X obj 73 510 < 1;
#X obj 166 510 < 1;
#X obj 259 510 < 100;
#X obj 353 510 < 65;
#X obj 443 509 < 1;
#X obj 534 509 < 1;
#X obj 627 508 < 100;
#X obj 719 507 < 50;
#X obj 1541 423 outputs~;
#X obj 1559 146 909kick;
#X obj 1590 262 808snare;
#X obj 1590 236 r snare;
#X obj 1563 107 r kick;
#X obj 737 19 spigot;
#X obj 776 -5 tgl 19 0 empty empty empty 0 -10 0 12 #fcfcfc #000000 #000000 0 1;
#X obj 1621 360 r hihat;
#X obj 1621 384 808hihat;
#X obj 1562 -1 16stepseq;
#X obj 857 211 bng 35 250 50 0 empty empty empty 0 -10 0 12 #c6feff #ff0400 #000000;
#X obj 857 253 spigot;
#X obj 857 278 bng 20 250 50 0 empty empty empty 0 -10 0 12 #e3c6ff #ff8300 #000000;
#X obj 896 211 tgl 35 0 empty empty empty 0 -10 0 12 #e3c6ff #9c00ff #000000 0 1;
#X obj 948 211 bng 35 250 50 0 empty empty empty 0 -10 0 12 #c6feff #ff0400 #000000;
#X obj 948 253 spigot;
#X obj 948 278 bng 20 250 50 0 empty empty empty 0 -10 0 12 #e3c6ff #ff8300 #000000;
#X obj 987 211 tgl 35 0 empty empty empty 0 -10 0 12 #e3c6ff #9c00ff #000000 0 1;
#X obj 1047 210 bng 35 250 50 0 empty empty empty 0 -10 0 12 #c6feff #ff0400 #000000;
#X obj 1047 252 spigot;
#X obj 1047 277 bng 20 250 50 0 empty empty empty 0 -10 0 12 #e3c6ff #ff8300 #000000;
#X obj 1086 210 tgl 35 0 empty empty empty 0 -10 0 12 #e3c6ff #9c00ff #000000 0 1;
#X obj 1227 210 bng 35 250 50 0 empty empty empty 0 -10 0 12 #c6feff #ff0400 #000000;
#X obj 1227 252 spigot;
#X obj 1227 277 bng 20 250 50 0 empty empty empty 0 -10 0 12 #e3c6ff #ff8300 #000000;
#X obj 1266 210 tgl 35 0 empty empty empty 0 -10 0 12 #e3c6ff #9c00ff #000000 0 1;
#X obj 1318 210 bng 35 250 50 0 empty empty empty 0 -10 0 12 #c6feff #ff0400 #000000;
#X obj 1318 252 spigot;
#X obj 1318 277 bng 20 250 50 0 empty empty empty 0 -10 0 12 #e3c6ff #ff8300 #000000;
#X obj 1357 210 tgl 35 0 empty empty empty 0 -10 0 12 #e3c6ff #9c00ff #000000 0 1;
#X obj 1407 209 bng 35 250 50 0 empty empty empty 0 -10 0 12 #c6feff #ff0400 #000000;
#X obj 1407 251 spigot;
#X obj 1407 276 bng 20 250 50 0 empty empty empty 0 -10 0 12 #e3c6ff #ff8300 #000000;
#X obj 1446 209 tgl 35 0 empty empty empty 0 -10 0 12 #e3c6ff #9c00ff #000000 0 1;
#X obj 806 101 random 100;
#X floatatom 899 125 5 0 0 0 - - - 0;
#X obj 899 101 random 100;
#X floatatom 992 125 5 0 0 0 - - - 0;
#X obj 992 101 random 100;
#X floatatom 1086 125 5 0 0 0 - - - 0;
#X obj 1086 101 random 100;
#X obj 1176 100 random 100;
#X floatatom 1267 124 5 0 0 0 - - - 0;
#X obj 1267 100 random 100;
#X floatatom 1360 123 5 0 0 0 - - - 0;
#X obj 1360 99 random 100;
#X floatatom 1452 122 5 0 0 0 - - - 0;
#X obj 1452 98 random 100;
#X obj 262 151 < 80;
#X obj 537 150 < 10;
#X obj 857 185 r ten;
#X obj 948 185 r eleven;
#X obj 1047 184 r twelve;
#X obj 737 -36 r bus_random;
#X obj 1227 184 r fourteen;
#X obj 1318 184 r fifteen;
#X obj 1407 183 r sixteen;
#X obj 899 148 < 40;
#X obj 992 148 < 50;
#X obj 1267 147 < 40;
#X obj 1360 146 < 60;
#X obj 1452 145 < 20;
#X obj 630 149 < 65;
#X obj 722 148 < 5;
#X obj 1086 148 < 15;
#X obj 30 128 cnv 15 90 185 empty empty empty 20 12 0 14 #ffca84 #404040 0;
#X obj 42 191 r one;
#X obj 42 217 bng 35 250 50 0 empty empty empty 0 -10 0 12 #c6feff #ff0400 #000000;
#X obj 42 259 spigot;
#X obj 42 284 bng 20 250 50 0 empty empty empty 0 -10 0 12 #e3c6ff #ff8300 #000000;
#X obj 81 217 tgl 35 0 empty empty empty 0 -10 0 12 #ffe3c6 #ff8300 #000000 0 1;
#X floatatom 80 130 5 0 0 0 - - - 0;
#X obj 80 153 < 100;
#X obj 80 106 random 100;
#X obj 401 124 cnv 15 90 185 empty empty empty 20 12 0 14 #ffca84 #404040 0;
#X obj 763 123 cnv 15 90 185 empty empty empty 20 12 0 14 #ffca84 #404040 0;
#X obj 1128 122 cnv 15 90 185 empty empty empty 20 12 0 14 #ffca84 #404040 0;
#X obj 408 214 bng 35 250 50 0 empty empty empty 0 -10 0 12 #c6feff #ff0400 #000000;
#X obj 408 256 spigot;
#X obj 408 281 bng 20 250 50 0 empty empty empty 0 -10 0 12 #e3c6ff #ff8300 #000000;
#X obj 447 214 tgl 35 0 empty empty empty 0 -10 0 12 #ffe3c6 #ff8300 #000000 0 1;
#X obj 408 188 r five;
#X floatatom 446 127 5 0 0 0 - - - 0;
#X obj 446 150 < 100;
#X obj 768 212 bng 35 250 50 0 empty empty empty 0 -10 0 12 #c6feff #ff0400 #000000;
#X obj 768 254 spigot;
#X obj 768 279 bng 20 250 50 0 empty empty empty 0 -10 0 12 #e3c6ff #ff8300 #000000;
#X obj 807 212 tgl 35 0 empty empty empty 0 -10 0 12 #ffe3c6 #ff8300 #000000 0 1;
#X floatatom 806 125 5 0 0 0 - - - 0;
#X obj 806 148 < 100;
#X obj 768 186 r nine;
#X obj 1138 211 bng 35 250 50 0 empty empty empty 0 -10 0 12 #c6feff #ff0400 #000000;
#X obj 1138 253 spigot;
#X obj 1138 278 bng 20 250 50 0 empty empty empty 0 -10 0 12 #e3c6ff #ff8300 #000000;
#X obj 1177 211 tgl 35 0 empty empty empty 0 -10 0 12 #ffe3c6 #ff8300 #000000 0 1;
#X floatatom 1176 124 5 0 0 0 - - - 0;
#X obj 1176 147 < 100;
#X obj 1138 185 r thirteen;
#X obj 94 1013 bng 35 250 50 0 empty empty empty 0 -10 0 12 #c6feff #ff0400 #000000;
#X obj 94 1055 spigot;
#X obj 94 1080 bng 20 250 50 0 empty empty empty 0 -10 0 12 #e3c6ff #ff8300 #000000;
#X obj 133 1013 tgl 35 0 empty empty empty 0 -10 0 12 #e3c6ff #9c00ff #000000 0 1;
#X obj 185 1013 bng 35 250 50 0 empty empty empty 0 -10 0 12 #c6feff #ff0400 #000000;
#X obj 185 1055 spigot;
#X obj 185 1080 bng 20 250 50 0 empty empty empty 0 -10 0 12 #e3c6ff #ff8300 #000000;
#X obj 224 1013 tgl 35 0 empty empty empty 0 -10 0 12 #e3c6ff #9c00ff #000000 0 1;
#X obj 284 1012 bng 35 250 50 0 empty empty empty 0 -10 0 12 #c6feff #ff0400 #000000;
#X obj 284 1054 spigot;
#X obj 284 1079 bng 20 250 50 0 empty empty empty 0 -10 0 12 #e3c6ff #ff8300 #000000;
#X obj 323 1012 tgl 35 0 empty empty empty 0 -10 0 12 #e3c6ff #9c00ff #000000 0 1;
#X obj 464 1012 bng 35 250 50 0 empty empty empty 0 -10 0 12 #c6feff #ff0400 #000000;
#X obj 464 1054 spigot;
#X obj 464 1079 bng 20 250 50 0 empty empty empty 0 -10 0 12 #e3c6ff #ff8300 #000000;
#X obj 503 1012 tgl 35 0 empty empty empty 0 -10 0 12 #e3c6ff #9c00ff #000000 0 1;
#X obj 555 1012 bng 35 250 50 0 empty empty empty 0 -10 0 12 #c6feff #ff0400 #000000;
#X obj 555 1054 spigot;
#X obj 555 1079 bng 20 250 50 0 empty empty empty 0 -10 0 12 #e3c6ff #ff8300 #000000;
#X obj 594 1012 tgl 35 0 empty empty empty 0 -10 0 12 #e3c6ff #9c00ff #000000 0 1;
#X obj 644 1011 bng 35 250 50 0 empty empty empty 0 -10 0 12 #c6feff #ff0400 #000000;
#X obj 644 1053 spigot;
#X obj 644 1078 bng 20 250 50 0 empty empty empty 0 -10 0 12 #e3c6ff #ff8300 #000000;
#X obj 683 1011 tgl 35 0 empty empty empty 0 -10 0 12 #e3c6ff #9c00ff #000000 0 1;
#X obj 94 987 r two;
#X obj 185 987 r three;
#X obj 284 986 r four;
#X obj 464 986 r six;
#X obj 555 986 r seven;
#X obj 644 985 r eight;
#X obj 704 841 bng 19 250 50 0 empty empty empty 0 -10 0 12 #fcfcfc #000000 #000000;
#X floatatom 136 927 5 0 0 0 - - - 0;
#X obj 136 903 random 100;
#X floatatom 229 927 5 0 0 0 - - - 0;
#X obj 229 903 random 100;
#X floatatom 323 927 5 0 0 0 - - - 0;
#X obj 323 903 random 100;
#X obj 413 902 random 100;
#X floatatom 504 926 5 0 0 0 - - - 0;
#X obj 504 902 random 100;
#X floatatom 597 925 5 0 0 0 - - - 0;
#X obj 597 901 random 100;
#X floatatom 689 924 5 0 0 0 - - - 0;
#X obj 689 900 random 100;
#X obj 704 818 spigot;
#X obj 743 794 tgl 19 0 empty empty empty 0 -10 0 12 #fcfcfc #000000 #000000 0 1;
#X obj 824 1010 bng 35 250 50 0 empty empty empty 0 -10 0 12 #c6feff #ff0400 #000000;
#X obj 824 1052 spigot;
#X obj 824 1077 bng 20 250 50 0 empty empty empty 0 -10 0 12 #e3c6ff #ff8300 #000000;
#X obj 863 1010 tgl 35 0 empty empty empty 0 -10 0 12 #e3c6ff #9c00ff #000000 0 1;
#X obj 915 1010 bng 35 250 50 0 empty empty empty 0 -10 0 12 #c6feff #ff0400 #000000;
#X obj 915 1052 spigot;
#X obj 915 1077 bng 20 250 50 0 empty empty empty 0 -10 0 12 #e3c6ff #ff8300 #000000;
#X obj 954 1010 tgl 35 0 empty empty empty 0 -10 0 12 #e3c6ff #9c00ff #000000 0 1;
#X obj 1014 1009 bng 35 250 50 0 empty empty empty 0 -10 0 12 #c6feff #ff0400 #000000;
#X obj 1014 1051 spigot;
#X obj 1014 1076 bng 20 250 50 0 empty empty empty 0 -10 0 12 #e3c6ff #ff8300 #000000;
#X obj 1053 1009 tgl 35 0 empty empty empty 0 -10 0 12 #e3c6ff #9c00ff #000000 0 1;
#X obj 1194 1009 bng 35 250 50 0 empty empty empty 0 -10 0 12 #c6feff #ff0400 #000000;
#X obj 1194 1051 spigot;
#X obj 1194 1076 bng 20 250 50 0 empty empty empty 0 -10 0 12 #e3c6ff #ff8300 #000000;
#X obj 1233 1009 tgl 35 0 empty empty empty 0 -10 0 12 #e3c6ff #9c00ff #000000 0 1;
#X obj 1285 1009 bng 35 250 50 0 empty empty empty 0 -10 0 12 #c6feff #ff0400 #000000;
#X obj 1285 1051 spigot;
#X obj 1285 1076 bng 20 250 50 0 empty empty empty 0 -10 0 12 #e3c6ff #ff8300 #000000;
#X obj 1324 1009 tgl 35 0 empty empty empty 0 -10 0 12 #e3c6ff #9c00ff #000000 0 1;
#X obj 1374 1008 bng 35 250 50 0 empty empty empty 0 -10 0 12 #c6feff #ff0400 #000000;
#X obj 1374 1050 spigot;
#X obj 1374 1075 bng 20 250 50 0 empty empty empty 0 -10 0 12 #e3c6ff #ff8300 #000000;
#X obj 1413 1008 tgl 35 0 empty empty empty 0 -10 0 12 #e3c6ff #9c00ff #000000 0 1;
#X obj 773 900 random 100;
#X floatatom 866 924 5 0 0 0 - - - 0;
#X obj 866 900 random 100;
#X floatatom 959 924 5 0 0 0 - - - 0;
#X obj 959 900 random 100;
#X floatatom 1053 924 5 0 0 0 - - - 0;
#X obj 1053 900 random 100;
#X obj 1143 899 random 100;
#X floatatom 1234 923 5 0 0 0 - - - 0;
#X obj 1234 899 random 100;
#X floatatom 1327 922 5 0 0 0 - - - 0;
#X obj 1327 898 random 100;
#X floatatom 1419 921 5 0 0 0 - - - 0;
#X obj 1419 897 random 100;
#X obj 824 984 r ten;
#X obj 915 984 r eleven;
#X obj 1014 983 r twelve;
#X obj 704 763 r bus_random;
#X obj 1194 983 r fourteen;
#X obj 1285 983 r fifteen;
#X obj 1374 982 r sixteen;
#X obj 9 990 r one;
#X obj 9 1016 bng 35 250 50 0 empty empty empty 0 -10 0 12 #c6feff #ff0400 #000000;
#X obj 9 1058 spigot;
#X obj 9 1083 bng 20 250 50 0 empty empty empty 0 -10 0 12 #e3c6ff #ff8300 #000000;
#X obj 48 1016 tgl 35 0 empty empty empty 0 -10 0 12 #ffe3c6 #ff8300 #000000 0 1;
#X floatatom 47 929 5 0 0 0 - - - 0;
#X obj 47 905 random 100;
#X obj 368 923 cnv 15 90 185 empty empty empty 20 12 0 14 #ffca84 #404040 0;
#X obj 730 922 cnv 15 90 185 empty empty empty 20 12 0 14 #ffca84 #404040 0;
#X obj 1095 921 cnv 15 90 185 empty empty empty 20 12 0 14 #ffca84 #404040 0;
#X obj 375 1013 bng 35 250 50 0 empty empty empty 0 -10 0 12 #c6feff #ff0400 #000000;
#X obj 375 1055 spigot;
#X obj 375 1080 bng 20 250 50 0 empty empty empty 0 -10 0 12 #e3c6ff #ff8300 #000000;
#X obj 414 1013 tgl 35 0 empty empty empty 0 -10 0 12 #ffe3c6 #ff8300 #000000 0 1;
#X obj 375 987 r five;
#X floatatom 413 926 5 0 0 0 - - - 0;
#X obj 735 1011 bng 35 250 50 0 empty empty empty 0 -10 0 12 #c6feff #ff0400 #000000;
#X obj 735 1053 spigot;
#X obj 735 1078 bng 20 250 50 0 empty empty empty 0 -10 0 12 #e3c6ff #ff8300 #000000;
#X obj 774 1011 tgl 35 0 empty empty empty 0 -10 0 12 #ffe3c6 #ff8300 #000000 0 1;
#X floatatom 773 924 5 0 0 0 - - - 0;
#X obj 735 985 r nine;
#X obj 1105 1010 bng 35 250 50 0 empty empty empty 0 -10 0 12 #c6feff #ff0400 #000000;
#X obj 1105 1052 spigot;
#X obj 1105 1077 bng 20 250 50 0 empty empty empty 0 -10 0 12 #e3c6ff #ff8300 #000000;
#X obj 1144 1010 tgl 35 0 empty empty empty 0 -10 0 12 #ffe3c6 #ff8300 #000000 0 1;
#X floatatom 1143 923 5 0 0 0 - - - 0;
#X obj 1105 984 r thirteen;
#X obj 698 1156 s hihat;
#X obj 597 948 < 80;
#X obj 689 947 < 65;
#X obj 1053 947 < 75;
#X obj 1327 945 < 80;
#X obj 959 947 < 90;
#X obj 229 950 < 85;
#X obj 413 949 < 90;
#X obj 47 952 < 95;
#X obj 773 947 < 85;
#X obj 1143 946 < 78;
#X obj 1419 944 < 65;
#X obj 136 951 < 55;
#X obj 323 950 < 55;
#X obj 504 949 < 55;
#X obj 866 947 < 55;
#X obj 1234 946 < 55;
#X obj 356 151 < 15;
#X obj 169 152 < 15;
#X connect 0 0 1 0;
#X connect 1 0 2 0;
#X connect 2 0 44 0;
#X connect 3 0 1 1;
#X connect 4 0 5 0;
#X connect 5 0 6 0;
#X connect 6 0 44 0;
#X connect 7 0 5 1;
#X connect 8 0 9 0;
#X connect 9 0 10 0;
#X connect 10 0 44 0;
#X connect 11 0 9 1;
#X connect 12 0 13 0;
#X connect 13 0 14 0;
#X connect 14 0 44 0;
#X connect 15 0 13 1;
#X connect 16 0 17 0;
#X connect 17 0 18 0;
#X connect 18 0 44 0;
#X connect 19 0 17 1;
#X connect 20 0 21 0;
#X connect 21 0 22 0;
#X connect 22 0 44 0;
#X connect 23 0 21 1;
#X connect 24 0 0 0;
#X connect 25 0 4 0;
#X connect 26 0 8 0;
#X connect 27 0 12 0;
#X connect 28 0 16 0;
#X connect 29 0 20 0;
#X connect 30 0 173 0;
#X connect 30 0 171 0;
#X connect 30 0 169 0;
#X connect 30 0 167 0;
#X connect 30 0 166 0;
#X connect 30 0 164 0;
#X connect 30 0 162 0;
#X connect 30 0 160 0;
#X connect 30 0 43 0;
#X connect 30 0 41 0;
#X connect 30 0 39 0;
#X connect 30 0 36 0;
#X connect 30 0 34 0;
#X connect 30 0 32 0;
#X connect 30 0 37 0;
#X connect 30 0 199 0;
#X connect 31 0 361 0;
#X connect 32 0 31 0;
#X connect 33 0 174 0;
#X connect 34 0 33 0;
#X connect 35 0 360 0;
#X connect 36 0 35 0;
#X connect 37 0 208 0;
#X connect 38 0 175 0;
#X connect 39 0 38 0;
#X connect 40 0 188 0;
#X connect 41 0 40 0;
#X connect 42 0 189 0;
#X connect 43 0 42 0;
#X connect 45 0 46 0;
#X connect 46 0 47 0;
#X connect 47 0 48 0;
#X connect 48 0 117 0;
#X connect 49 0 47 1;
#X connect 50 0 51 0;
#X connect 51 0 52 0;
#X connect 52 0 117 0;
#X connect 53 0 51 1;
#X connect 54 0 55 0;
#X connect 55 0 56 0;
#X connect 56 0 117 0;
#X connect 57 0 55 1;
#X connect 58 0 59 0;
#X connect 59 0 60 0;
#X connect 60 0 117 0;
#X connect 61 0 59 1;
#X connect 62 0 63 0;
#X connect 63 0 64 0;
#X connect 64 0 117 0;
#X connect 65 0 63 1;
#X connect 66 0 67 0;
#X connect 67 0 68 0;
#X connect 68 0 117 0;
#X connect 69 0 67 1;
#X connect 70 0 71 0;
#X connect 71 0 72 0;
#X connect 72 0 117 0;
#X connect 73 0 71 1;
#X connect 74 0 75 0;
#X connect 75 0 76 0;
#X connect 76 0 117 0;
#X connect 77 0 75 1;
#X connect 78 0 50 0;
#X connect 79 0 54 0;
#X connect 80 0 58 0;
#X connect 81 0 62 0;
#X connect 82 0 66 0;
#X connect 83 0 70 0;
#X connect 84 0 74 0;
#X connect 85 0 86 0;
#X connect 86 0 88 0;
#X connect 87 0 118 0;
#X connect 88 0 87 0;
#X connect 89 0 90 0;
#X connect 90 0 92 0;
#X connect 91 0 119 0;
#X connect 92 0 91 0;
#X connect 93 0 94 0;
#X connect 94 0 96 0;
#X connect 95 0 120 0;
#X connect 96 0 95 0;
#X connect 97 0 98 0;
#X connect 98 0 100 0;
#X connect 99 0 121 0;
#X connect 100 0 99 0;
#X connect 101 0 102 0;
#X connect 102 0 104 0;
#X connect 103 0 122 0;
#X connect 104 0 103 0;
#X connect 105 0 106 0;
#X connect 106 0 108 0;
#X connect 107 0 123 0;
#X connect 108 0 107 0;
#X connect 109 0 110 0;
#X connect 110 0 112 0;
#X connect 111 0 124 0;
#X connect 112 0 111 0;
#X connect 113 0 114 0;
#X connect 114 0 116 0;
#X connect 115 0 125 0;
#X connect 116 0 115 0;
#X connect 118 0 49 0;
#X connect 119 0 53 0;
#X connect 120 0 57 0;
#X connect 121 0 61 0;
#X connect 122 0 65 0;
#X connect 123 0 69 0;
#X connect 124 0 73 0;
#X connect 125 0 77 0;
#X connect 127 0 126 0;
#X connect 127 0 126 1;
#X connect 128 0 126 0;
#X connect 128 0 126 1;
#X connect 129 0 128 0;
#X connect 130 0 127 0;
#X connect 131 0 30 0;
#X connect 132 0 131 1;
#X connect 133 0 134 0;
#X connect 134 0 126 0;
#X connect 134 0 126 1;
#X connect 136 0 137 0;
#X connect 137 0 138 0;
#X connect 138 0 44 0;
#X connect 139 0 137 1;
#X connect 140 0 141 0;
#X connect 141 0 142 0;
#X connect 142 0 44 0;
#X connect 143 0 141 1;
#X connect 144 0 145 0;
#X connect 145 0 146 0;
#X connect 146 0 44 0;
#X connect 147 0 145 1;
#X connect 148 0 149 0;
#X connect 149 0 150 0;
#X connect 150 0 44 0;
#X connect 151 0 149 1;
#X connect 152 0 153 0;
#X connect 153 0 154 0;
#X connect 154 0 44 0;
#X connect 155 0 153 1;
#X connect 156 0 157 0;
#X connect 157 0 158 0;
#X connect 158 0 44 0;
#X connect 159 0 157 1;
#X connect 160 0 214 0;
#X connect 161 0 183 0;
#X connect 162 0 161 0;
#X connect 163 0 184 0;
#X connect 164 0 163 0;
#X connect 165 0 190 0;
#X connect 166 0 165 0;
#X connect 167 0 221 0;
#X connect 168 0 185 0;
#X connect 169 0 168 0;
#X connect 170 0 186 0;
#X connect 171 0 170 0;
#X connect 172 0 187 0;
#X connect 173 0 172 0;
#X connect 174 0 7 0;
#X connect 175 0 15 0;
#X connect 176 0 136 0;
#X connect 177 0 140 0;
#X connect 178 0 144 0;
#X connect 179 0 131 0;
#X connect 180 0 148 0;
#X connect 181 0 152 0;
#X connect 182 0 156 0;
#X connect 183 0 139 0;
#X connect 184 0 143 0;
#X connect 185 0 151 0;
#X connect 186 0 155 0;
#X connect 187 0 159 0;
#X connect 188 0 19 0;
#X connect 189 0 23 0;
#X connect 190 0 147 0;
#X connect 192 0 193 0;
#X connect 193 0 194 0;
#X connect 194 0 195 0;
#X connect 195 0 44 0;
#X connect 196 0 194 1;
#X connect 197 0 198 0;
#X connect 198 0 196 0;
#X connect 199 0 197 0;
#X connect 203 0 204 0;
#X connect 204 0 205 0;
#X connect 205 0 44 0;
#X connect 206 0 204 1;
#X connect 207 0 203 0;
#X connect 208 0 209 0;
#X connect 209 0 206 0;
#X connect 210 0 211 0;
#X connect 211 0 212 0;
#X connect 212 0 44 0;
#X connect 213 0 211 1;
#X connect 214 0 215 0;
#X connect 215 0 213 0;
#X connect 216 0 210 0;
#X connect 217 0 218 0;
#X connect 218 0 219 0;
#X connect 219 0 44 0;
#X connect 220 0 218 1;
#X connect 221 0 222 0;
#X connect 222 0 220 0;
#X connect 223 0 217 0;
#X connect 224 0 225 0;
#X connect 225 0 226 0;
#X connect 226 0 343 0;
#X connect 227 0 225 1;
#X connect 228 0 229 0;
#X connect 229 0 230 0;
#X connect 230 0 343 0;
#X connect 231 0 229 1;
#X connect 232 0 233 0;
#X connect 233 0 234 0;
#X connect 234 0 343 0;
#X connect 235 0 233 1;
#X connect 236 0 237 0;
#X connect 237 0 238 0;
#X connect 238 0 343 0;
#X connect 239 0 237 1;
#X connect 240 0 241 0;
#X connect 241 0 242 0;
#X connect 242 0 343 0;
#X connect 243 0 241 1;
#X connect 244 0 245 0;
#X connect 245 0 246 0;
#X connect 246 0 343 0;
#X connect 247 0 245 1;
#X connect 248 0 224 0;
#X connect 249 0 228 0;
#X connect 250 0 232 0;
#X connect 251 0 236 0;
#X connect 252 0 240 0;
#X connect 253 0 244 0;
#X connect 254 0 307 0;
#X connect 254 0 305 0;
#X connect 254 0 303 0;
#X connect 254 0 301 0;
#X connect 254 0 300 0;
#X connect 254 0 298 0;
#X connect 254 0 296 0;
#X connect 254 0 294 0;
#X connect 254 0 267 0;
#X connect 254 0 265 0;
#X connect 254 0 263 0;
#X connect 254 0 260 0;
#X connect 254 0 258 0;
#X connect 254 0 256 0;
#X connect 254 0 261 0;
#X connect 254 0 321 0;
#X connect 255 0 355 0;
#X connect 256 0 255 0;
#X connect 257 0 349 0;
#X connect 258 0 257 0;
#X connect 259 0 356 0;
#X connect 260 0 259 0;
#X connect 261 0 330 0;
#X connect 262 0 357 0;
#X connect 263 0 262 0;
#X connect 264 0 344 0;
#X connect 265 0 264 0;
#X connect 266 0 345 0;
#X connect 267 0 266 0;
#X connect 268 0 254 0;
#X connect 269 0 268 1;
#X connect 270 0 271 0;
#X connect 271 0 272 0;
#X connect 272 0 343 0;
#X connect 273 0 271 1;
#X connect 274 0 275 0;
#X connect 275 0 276 0;
#X connect 276 0 343 0;
#X connect 277 0 275 1;
#X connect 278 0 279 0;
#X connect 279 0 280 0;
#X connect 280 0 343 0;
#X connect 281 0 279 1;
#X connect 282 0 283 0;
#X connect 283 0 284 0;
#X connect 284 0 343 0;
#X connect 285 0 283 1;
#X connect 286 0 287 0;
#X connect 287 0 288 0;
#X connect 288 0 343 0;
#X connect 289 0 287 1;
#X connect 290 0 291 0;
#X connect 291 0 292 0;
#X connect 292 0 343 0;
#X connect 293 0 291 1;
#X connect 294 0 335 0;
#X connect 295 0 358 0;
#X connect 296 0 295 0;
#X connect 297 0 348 0;
#X connect 298 0 297 0;
#X connect 299 0 346 0;
#X connect 300 0 299 0;
#X connect 301 0 341 0;
#X connect 302 0 359 0;
#X connect 303 0 302 0;
#X connect 304 0 347 0;
#X connect 305 0 304 0;
#X connect 306 0 354 0;
#X connect 307 0 306 0;
#X connect 308 0 270 0;
#X connect 309 0 274 0;
#X connect 310 0 278 0;
#X connect 311 0 268 0;
#X connect 312 0 282 0;
#X connect 313 0 286 0;
#X connect 314 0 290 0;
#X connect 315 0 316 0;
#X connect 316 0 317 0;
#X connect 317 0 318 0;
#X connect 318 0 343 0;
#X connect 319 0 317 1;
#X connect 320 0 351 0;
#X connect 321 0 320 0;
#X connect 325 0 326 0;
#X connect 326 0 327 0;
#X connect 327 0 343 0;
#X connect 328 0 326 1;
#X connect 329 0 325 0;
#X connect 330 0 350 0;
#X connect 331 0 332 0;
#X connect 332 0 333 0;
#X connect 333 0 343 0;
#X connect 334 0 332 1;
#X connect 335 0 352 0;
#X connect 336 0 331 0;
#X connect 337 0 338 0;
#X connect 338 0 339 0;
#X connect 339 0 343 0;
#X connect 340 0 338 1;
#X connect 341 0 353 0;
#X connect 342 0 337 0;
#X connect 344 0 243 0;
#X connect 345 0 247 0;
#X connect 346 0 281 0;
#X connect 347 0 289 0;
#X connect 348 0 277 0;
#X connect 349 0 231 0;
#X connect 350 0 328 0;
#X connect 351 0 319 0;
#X connect 352 0 334 0;
#X connect 353 0 340 0;
#X connect 354 0 293 0;
#X connect 355 0 227 0;
#X connect 356 0 235 0;
#X connect 357 0 239 0;
#X connect 358 0 273 0;
#X connect 359 0 285 0;
#X connect 360 0 11 0;
#X connect 361 0 3 0;
#X coords 0 834 1 833 730 110 0;
