#N canvas 4 38 821 822 12;
#X obj 50 12 r one;
#X obj 60 70 bng 35 250 50 0 empty empty empty 0 -10 0 12 #c6ffc9 #ff00f6 #000000;
#X obj 61 452 spigot;
#X obj 60 221 bng 20 250 50 0 empty empty empty 0 -10 0 12 #e3c6ff #ff8300 #000000;
#X obj 60 180 tgl 35 1 empty empty empty 0 -10 0 12 #fac6ff #29ff00 #000000 0 1;
#X obj 110 70 bng 35 250 50 0 empty empty empty 0 -10 0 12 #c6feff #ff0400 #000000;
#X obj 150 451 spigot;
#X obj 110 220 bng 20 250 50 0 empty empty empty 0 -10 0 12 #e3c6ff #ff8300 #000000;
#X obj 110 180 tgl 35 1 empty empty empty 0 -10 0 12 #e3c6ff #9c00ff #000000 1 1;
#X obj 160 70 bng 35 250 50 0 empty empty empty 0 -10 0 12 #c6feff #ff0400 #000000;
#X obj 241 451 spigot;
#X obj 160 220 bng 20 250 50 0 empty empty empty 0 -10 0 12 #e3c6ff #ff8300 #000000;
#X obj 160 180 tgl 35 0 empty empty empty 0 -10 0 12 #e3c6ff #9c00ff #000000 0 1;
#X obj 210 70 bng 35 250 50 0 empty empty empty 0 -10 0 12 #c6feff #ff0400 #000000;
#X obj 330 450 spigot;
#X obj 210 220 bng 20 250 50 0 empty empty empty 0 -10 0 12 #e3c6ff #ff8300 #000000;
#X obj 210 180 tgl 35 0 empty empty empty 0 -10 0 12 #e3c6ff #9c00ff #000000 0 1;
#X obj 421 451 spigot;
#X obj 261 220 bng 20 250 50 0 empty empty empty 0 -10 0 12 #e3c6ff #ff8300 #000000;
#X obj 310 70 bng 35 250 50 0 empty empty empty 0 -10 0 12 #c6feff #ff0400 #000000;
#X obj 510 450 spigot;
#X obj 310 220 bng 20 250 50 0 empty empty empty 0 -10 0 12 #e3c6ff #ff8300 #000000;
#X obj 310 180 tgl 35 1 empty empty empty 0 -10 0 12 #e3c6ff #9c00ff #000000 1 1;
#X obj 360 70 bng 35 250 50 0 empty empty empty 0 -10 0 12 #c6feff #ff0400 #000000;
#X obj 601 450 spigot;
#X obj 360 220 bng 20 250 50 0 empty empty empty 0 -10 0 12 #e3c6ff #ff8300 #000000;
#X obj 360 180 tgl 35 0 empty empty empty 0 -10 0 12 #e3c6ff #9c00ff #000000 0 1;
#X obj 410 70 bng 35 250 50 0 empty empty empty 0 -10 0 12 #c6feff #ff0400 #000000;
#X obj 690 449 spigot;
#X obj 410 220 bng 20 250 50 0 empty empty empty 0 -10 0 12 #e3c6ff #ff8300 #000000;
#X obj 410 180 tgl 35 0 empty empty empty 0 -10 0 12 #e3c6ff #9c00ff #000000 0 1;
#X obj 100 10 r two;
#X obj 150 10 r three;
#X obj 220 10 r four;
#X obj 280 10 r five;
#X obj 340 10 r six;
#X obj 390 10 r seven;
#X obj 450 10 r eight;
#X obj 778 449 spigot;
#X obj 60 291 bng 20 250 50 0 empty empty empty 0 -10 0 12 #e3c6ff #ff8300 #000000;
#X obj 110 248 tgl 35 1 empty empty empty 0 -10 0 12 #e3c6ff #9c00ff #000000 1 1;
#X obj 110 120 bng 35 250 50 0 empty empty empty 0 -10 0 12 #c6feff #ff0400 #000000;
#X obj 867 448 spigot;
#X obj 110 290 bng 20 250 50 0 empty empty empty 0 -10 0 12 #e3c6ff #ff8300 #000000;
#X obj 160 248 tgl 35 0 empty empty empty 0 -10 0 12 #e3c6ff #9c00ff #000000 0 1;
#X obj 160 120 bng 35 250 50 0 empty empty empty 0 -10 0 12 #c6feff #ff0400 #000000;
#X obj 958 448 spigot;
#X obj 160 290 bng 20 250 50 0 empty empty empty 0 -10 0 12 #e3c6ff #ff8300 #000000;
#X obj 210 248 tgl 35 0 empty empty empty 0 -10 0 12 #e3c6ff #9c00ff #000000 0 1;
#X obj 210 120 bng 35 250 50 0 empty empty empty 0 -10 0 12 #c6feff #ff0400 #000000;
#X obj 1047 447 spigot;
#X obj 210 290 bng 20 250 50 0 empty empty empty 0 -10 0 12 #e3c6ff #ff8300 #000000;
#X obj 1138 448 spigot;
#X obj 260 290 bng 20 250 50 0 empty empty empty 0 -10 0 12 #e3c6ff #ff8300 #000000;
#X obj 310 120 bng 35 250 50 0 empty empty empty 0 -10 0 12 #c6feff #ff0400 #000000;
#X obj 1227 447 spigot;
#X obj 310 290 bng 20 250 50 0 empty empty empty 0 -10 0 12 #e3c6ff #ff8300 #000000;
#X obj 310 248 tgl 35 0 empty empty empty 0 -10 0 12 #e3c6ff #9c00ff #000000 0 1;
#X obj 360 120 bng 35 250 50 0 empty empty empty 0 -10 0 12 #c6feff #ff0400 #000000;
#X obj 1318 447 spigot;
#X obj 360 290 bng 20 250 50 0 empty empty empty 0 -10 0 12 #e3c6ff #ff8300 #000000;
#X obj 360 248 tgl 35 0 empty empty empty 0 -10 0 12 #e3c6ff #9c00ff #000000 0 1;
#X obj 410 120 bng 35 250 50 0 empty empty empty 0 -10 0 12 #c6feff #ff0400 #000000;
#X obj 1407 446 spigot;
#X obj 410 290 bng 20 250 50 0 empty empty empty 0 -10 0 12 #e3c6ff #ff8300 #000000;
#X obj 410 248 tgl 35 0 empty empty empty 0 -10 0 12 #e3c6ff #9c00ff #000000 0 1;
#X obj 510 10 r nine;
#X obj 570 10 r ten;
#X obj 620 10 r eleven;
#X obj 690 10 r twelve;
#X obj 760 10 r thirteen;
#X obj 849 10 r fourteen;
#X obj 940 10 r fifteen;
#X obj 1029 10 r sixteen;
#X obj 260 70 bng 35 250 50 0 empty empty empty 0 -10 0 12 #c6ffc9 #ff00f6 #000000;
#X obj 60 120 bng 35 250 50 0 empty empty empty 0 -10 0 12 #c6ffc9 #ff00f6 #000000;
#X obj 260 120 bng 35 250 50 0 empty empty empty 0 -10 0 12 #c6ffc9 #ff00f6 #000000;
#X obj 60 248 tgl 35 0 empty empty empty 0 -10 0 12 #fac6ff #29ff00 #000000 0 1;
#X obj 260 180 tgl 35 0 empty empty empty 0 -10 0 12 #fac6ff #29ff00 #000000 0 1;
#X obj 260 248 tgl 35 0 empty empty empty 0 -10 0 12 #fac6ff #29ff00 #000000 0 1;
#X obj 630 570 outlet;
#X connect 0 0 1 0;
#X connect 1 0 2 0;
#X connect 2 0 3 0;
#X connect 2 0 80 0;
#X connect 4 0 2 1;
#X connect 5 0 6 0;
#X connect 6 0 7 0;
#X connect 6 0 80 0;
#X connect 8 0 6 1;
#X connect 9 0 10 0;
#X connect 10 0 11 0;
#X connect 10 0 80 0;
#X connect 12 0 10 1;
#X connect 13 0 14 0;
#X connect 14 0 15 0;
#X connect 14 0 80 0;
#X connect 16 0 14 1;
#X connect 17 0 18 0;
#X connect 17 0 80 0;
#X connect 19 0 20 0;
#X connect 20 0 21 0;
#X connect 20 0 80 0;
#X connect 22 0 20 1;
#X connect 23 0 24 0;
#X connect 24 0 25 0;
#X connect 24 0 80 0;
#X connect 26 0 24 1;
#X connect 27 0 28 0;
#X connect 28 0 29 0;
#X connect 28 0 80 0;
#X connect 30 0 28 1;
#X connect 31 0 5 0;
#X connect 32 0 9 0;
#X connect 33 0 13 0;
#X connect 34 0 74 0;
#X connect 35 0 19 0;
#X connect 36 0 23 0;
#X connect 37 0 27 0;
#X connect 38 0 39 0;
#X connect 38 0 80 0;
#X connect 40 0 42 1;
#X connect 41 0 42 0;
#X connect 42 0 43 0;
#X connect 42 0 80 0;
#X connect 44 0 46 1;
#X connect 45 0 46 0;
#X connect 46 0 47 0;
#X connect 46 0 80 0;
#X connect 48 0 50 1;
#X connect 49 0 50 0;
#X connect 50 0 51 0;
#X connect 50 0 80 0;
#X connect 52 0 53 0;
#X connect 52 0 80 0;
#X connect 54 0 55 0;
#X connect 55 0 56 0;
#X connect 55 0 80 0;
#X connect 57 0 55 1;
#X connect 58 0 59 0;
#X connect 59 0 60 0;
#X connect 59 0 80 0;
#X connect 61 0 59 1;
#X connect 62 0 63 0;
#X connect 63 0 64 0;
#X connect 63 0 80 0;
#X connect 65 0 63 1;
#X connect 66 0 75 0;
#X connect 67 0 41 0;
#X connect 68 0 45 0;
#X connect 69 0 49 0;
#X connect 70 0 76 0;
#X connect 71 0 54 0;
#X connect 72 0 58 0;
#X connect 73 0 62 0;
#X connect 74 0 17 0;
#X connect 75 0 38 0;
#X connect 76 0 52 0;
#X connect 77 0 38 1;
#X connect 78 0 17 1;
#X connect 79 0 52 1;
#X coords 0 -1 1 1 412 275 2 50 54;
