#N canvas 0 34 1600 834 12;
#N canvas 4 38 821 822 square 0;
#X obj 69 59 inlet~;
#X obj 69 83 phasor~;
#X obj 69 107 expr~ if($v1>0.5 \, 1 \, 0);
#X obj 69 131 outlet~;
#X text 153 134 if $v1 menor que 5 output 1 \, se não ouput 0;
#X connect 0 0 1 0;
#X connect 1 0 2 0;
#X connect 2 0 3 0;
#X restore 124 161 pd square;
#X obj 125 132 *~ 2;
#N canvas 4 38 821 822 square 0;
#X obj 142 72 inlet~;
#X obj 142 96 phasor~;
#X obj 142 120 expr~ if($v1>0.5 \, 1 \, 0);
#X obj 142 144 outlet~;
#X text 326 117 if $v1 menor que 5 output 1 \, se não ouput 0;
#X connect 0 0 1 0;
#X connect 1 0 2 0;
#X connect 2 0 3 0;
#X restore 123 233 pd square;
#N canvas 4 38 821 822 square 0;
#X obj 142 72 inlet~;
#X obj 142 96 phasor~;
#X obj 142 120 expr~ if($v1>0.5 \, 1 \, 0);
#X obj 142 144 outlet~;
#X obj 67 157 print~;
#X obj 43 105 bng 19 250 50 0 empty empty empty 0 -10 0 12 #fcfcfc #000000 #000000;
#X text 326 117 if $v1 menor que 5 output 1 \, se não ouput 0;
#X connect 0 0 1 0;
#X connect 1 0 2 0;
#X connect 2 0 3 0;
#X connect 2 0 4 0;
#X connect 5 0 4 0;
#X restore 124 308 pd square;
#N canvas 833 486 390 374 square 0;
#X obj 142 72 inlet~;
#X obj 142 96 phasor~;
#X obj 142 120 expr~ if($v1>0.5 \, 1 \, 0);
#X obj 142 144 outlet~;
#X obj 67 157 print~;
#X obj 43 105 bng 19 250 50 0 empty empty empty 0 -10 0 12 #fcfcfc #000000 #000000;
#X text 326 117 if $v1 menor que 5 output 1 \, se não ouput 0;
#X connect 0 0 1 0;
#X connect 1 0 2 0;
#X connect 2 0 3 0;
#X connect 2 0 4 0;
#X connect 5 0 4 0;
#X restore 123 380 pd square;
#N canvas 1201 486 391 374 square 0;
#X obj 142 72 inlet~;
#X obj 142 96 phasor~;
#X obj 142 120 expr~ if($v1>0.5 \, 1 \, 0);
#X obj 142 144 outlet~;
#X obj 67 157 print~;
#X obj 43 105 bng 19 250 50 0 empty empty empty 0 -10 0 12 #fcfcfc #000000 #000000;
#X text 326 117 if $v1 menor que 5 output 1 \, se não ouput 0;
#X connect 0 0 1 0;
#X connect 1 0 2 0;
#X connect 2 0 3 0;
#X connect 2 0 4 0;
#X connect 5 0 4 0;
#X restore 122 452 pd square;
#N canvas 4 38 821 822 square 0;
#X obj 142 72 inlet~;
#X obj 142 96 phasor~;
#X obj 142 120 expr~ if($v1>0.5 \, 1 \, 0);
#X obj 142 144 outlet~;
#X obj 67 157 print~;
#X obj 43 105 bng 19 250 50 0 empty empty empty 0 -10 0 12 #fcfcfc #000000 #000000;
#X text 326 117 if $v1 menor que 5 output 1 \, se não ouput 0;
#X connect 0 0 1 0;
#X connect 1 0 2 0;
#X connect 2 0 3 0;
#X connect 2 0 4 0;
#X connect 5 0 4 0;
#X restore 123 527 pd square;
#X obj 124 204 *~ 3;
#X obj 125 279 *~ 4.16;
#X obj 124 351 *~ 5.43;
#X obj 123 423 *~ 6.79;
#X obj 124 498 *~ 8.12;
#X obj 280 192 bp~ 10000 20;
#X obj 60 40 loadbang;
#X msg 60 64 40;
#X obj 516 70 bng 19 250 50 0 empty empty empty 0 -10 0 12 #fcfcfc #000000 #000000;
#X msg 422 108 1 2 \, 0 90 2;
#X obj 422 132 vline~;
#X obj 423 168 pow~ 4;
#X obj 358 454 *~;
#X obj 549 70 bng 19 250 50 0 empty empty empty 0 -10 0 12 #fcfcfc #000000 #000000;
#X msg 584 109 1 2 \, 0.7 540 2 \, 0 90 542;
#X obj 584 133 vline~;
#X obj 584 171 pow~ 4;
#X msg 529 112 0 4;
#X obj 281 308 hip~ 7000;
#X obj 281 332 hip~ 7000;
#X obj 281 356 hip~ 7000;
#X obj 281 380 hip~ 7000;
#X obj 414 19 inlet;
#X obj 357 540 outlet~;
#X obj 358 478 *~ 2;
#X connect 0 0 12 0;
#X connect 1 0 0 0;
#X connect 2 0 12 0;
#X connect 3 0 12 0;
#X connect 4 0 12 0;
#X connect 5 0 12 0;
#X connect 6 0 12 0;
#X connect 7 0 2 0;
#X connect 8 0 3 0;
#X connect 9 0 4 0;
#X connect 10 0 5 0;
#X connect 11 0 6 0;
#X connect 12 0 25 0;
#X connect 13 0 14 0;
#X connect 14 0 1 0;
#X connect 14 0 7 0;
#X connect 14 0 8 0;
#X connect 14 0 9 0;
#X connect 14 0 10 0;
#X connect 14 0 11 0;
#X connect 15 0 16 0;
#X connect 15 0 24 0;
#X connect 16 0 17 0;
#X connect 17 0 18 0;
#X connect 18 0 19 1;
#X connect 19 0 31 0;
#X connect 20 0 21 0;
#X connect 21 0 22 0;
#X connect 22 0 23 0;
#X connect 23 0 19 1;
#X connect 24 0 22 0;
#X connect 25 0 26 0;
#X connect 26 0 27 0;
#X connect 27 0 28 0;
#X connect 28 0 19 0;
#X connect 29 0 15 0;
#X connect 31 0 30 0;
