#N canvas 6 40 821 829 12;
#X obj 360 70 bng 20 250 50 0 empty empty empty 0 -10 0 12 #3fff37
#f548ff #000000;
#X msg 131 174 400 4 \, 200 10 4;
#X obj 131 199 vline~;
#X obj 131 224 osc~;
#X obj 234 310 *~;
#X obj 304 418 *~ 0.5;
#X msg 277 174 1 3 \, 0 100 4;
#X obj 277 199 vline~;
#X obj 277 224 pow~ 4;
#X msg 429 171 0.4 4 \, 0 300 4;
#X obj 429 196 vline~;
#X obj 385 305 *~;
#X obj 356 267 noise~;
#X msg 558 238 1.6;
#X msg 555 174 3;
#X msg 559 207 2;
#X obj 303 482 outlet~;
#X obj 249 28 inlet;
#X text 589 172 + seco;
#X text 593 236 + molhado;
#X obj 436 248 pow~ 1.6;
#X obj 410 70 vradio 15 0 0 3 empty empty empty 0 -8 0 10 #fcfcfc #000000
#000000 1;
#X obj 560 110 sel 0 1 2;
#X floatatom 360 100 5 1 5 0 - - -, f 5;
#X connect 0 0 1 0;
#X connect 0 0 6 0;
#X connect 0 0 9 0;
#X connect 1 0 2 0;
#X connect 2 0 3 0;
#X connect 3 0 4 0;
#X connect 4 0 5 0;
#X connect 5 0 16 0;
#X connect 6 0 7 0;
#X connect 7 0 8 0;
#X connect 8 0 4 1;
#X connect 9 0 10 0;
#X connect 10 0 20 0;
#X connect 11 0 5 0;
#X connect 12 0 11 0;
#X connect 13 0 20 1;
#X connect 13 0 23 0;
#X connect 14 0 20 1;
#X connect 14 0 23 0;
#X connect 15 0 20 1;
#X connect 15 0 23 0;
#X connect 17 0 0 0;
#X connect 20 0 11 1;
#X connect 21 0 22 0;
#X connect 22 0 14 0;
#X connect 22 1 15 0;
#X connect 22 2 13 0;
#X coords 0 -1 1 1 94 80 1 350 50;
