#N canvas 4 38 821 822 12;
#X obj 255 73 bng 20 250 50 0 empty empty empty 0 -10 0 12 #fcfcfc #000000 #000000;
#X msg 126 169 400 4 \, 200 10 4;
#X obj 126 194 vline~;
#X obj 126 219 osc~;
#X obj 234 310 *~;
#X obj 304 418 *~ 0.5;
#X msg 290 172 1 3 \, 0 100 4;
#X obj 290 197 vline~;
#X obj 290 222 pow~ 4;
#X msg 429 171 0.4 4 \, 0 300 4;
#X obj 429 196 vline~;
#X obj 385 305 *~;
#X obj 356 267 noise~;
#X obj 436 248 pow~ 3;
#X msg 558 238 1.6;
#X msg 555 174 3;
#X msg 559 207 2;
#X obj 310 523 outlet~;
#X obj 249 28 inlet;
#X text 601 174 + seco;
#X text 601 238 + molhado;
#X connect 0 0 1 0;
#X connect 0 0 6 0;
#X connect 0 0 9 0;
#X connect 1 0 2 0;
#X connect 2 0 3 0;
#X connect 3 0 4 0;
#X connect 4 0 5 0;
#X connect 5 0 17 0;
#X connect 6 0 7 0;
#X connect 7 0 8 0;
#X connect 8 0 4 1;
#X connect 9 0 10 0;
#X connect 10 0 13 0;
#X connect 11 0 5 0;
#X connect 12 0 11 0;
#X connect 13 0 11 1;
#X connect 14 0 13 1;
#X connect 15 0 13 1;
#X connect 16 0 13 1;
#X connect 18 0 0 0;
