#N canvas 4 38 821 822 12;
#X obj 120 173 sel 0;
#X obj 120 198 bng 20 250 50 0 empty empty empty 0 -10 0 12 #fcfcfc #000000 #000000;
#X obj 49 173 loadbang;
#X obj 173 172 metro;
#X obj 173 197 bng 20 250 50 0 empty empty empty 0 -10 0 12 #fcfcfc #000000 #000000;
#X obj 173 222 int 1;
#X floatatom 173 281 5 0 0 0 - - - 0;
#X obj 173 305 % 8;
#X obj 173 330 + 1;
#X floatatom 173 355 5 0 0 0 - - - 0;
#X obj 212 84 loadbang;
#X msg 212 109 375;
#X floatatom 150 105 5 0 0 0 - - - 0;
#X obj 275 283 + 1;
#X obj 171 410 sel 1 2 3 4 5 6 7 8;
#X obj 58 477 bng 20 250 50 0 empty empty empty 0 -10 0 12 #fcfcfc #000000 #000000;
#X obj 58 502 s one;
#X obj 110 477 bng 20 250 50 0 empty empty empty 0 -10 0 12 #fcfcfc #000000 #000000;
#X obj 161 477 bng 20 250 50 0 empty empty empty 0 -10 0 12 #fcfcfc #000000 #000000;
#X obj 226 477 bng 20 250 50 0 empty empty empty 0 -10 0 12 #fcfcfc #000000 #000000;
#X obj 283 477 bng 20 250 50 0 empty empty empty 0 -10 0 12 #fcfcfc #000000 #000000;
#X obj 341 477 bng 20 250 50 0 empty empty empty 0 -10 0 12 #fcfcfc #000000 #000000;
#X obj 389 475 bng 20 250 50 0 empty empty empty 0 -10 0 12 #fcfcfc #000000 #000000;
#X obj 452 476 bng 20 250 50 0 empty empty empty 0 -10 0 12 #fcfcfc #000000 #000000;
#X obj 110 502 s two;
#X obj 226 502 s four;
#X obj 283 502 s five;
#X obj 341 502 s six;
#X obj 390 502 s seven;
#X obj 452 501 s eight;
#X text 78 198 reset;
#X obj 161 502 s three;
#X msg 120 223 -1;
#X obj 105 104 tgl 35 0 empty empty empty 0 -10 0 12 #c6ffc7 #000000 #000000 0 1;
#X connect 0 0 1 0;
#X connect 1 0 32 0;
#X connect 2 0 1 0;
#X connect 3 0 4 0;
#X connect 4 0 5 0;
#X connect 5 0 6 0;
#X connect 5 0 13 0;
#X connect 6 0 7 0;
#X connect 7 0 8 0;
#X connect 8 0 9 0;
#X connect 9 0 14 0;
#X connect 10 0 11 0;
#X connect 11 0 12 0;
#X connect 12 0 3 1;
#X connect 13 0 5 1;
#X connect 14 0 15 0;
#X connect 14 1 17 0;
#X connect 14 2 18 0;
#X connect 14 3 19 0;
#X connect 14 4 20 0;
#X connect 14 5 21 0;
#X connect 14 6 22 0;
#X connect 14 7 23 0;
#X connect 15 0 16 0;
#X connect 17 0 24 0;
#X connect 18 0 31 0;
#X connect 19 0 25 0;
#X connect 20 0 26 0;
#X connect 21 0 27 0;
#X connect 22 0 28 0;
#X connect 23 0 29 0;
#X connect 32 0 5 0;
#X connect 33 0 0 0;
#X connect 33 0 3 0;
#X coords 0 -1 1 1 100 45 2 99 99;
