#N canvas 4 38 821 822 12;
#X obj 29 4 r one;
#X obj 29 30 bng 35 250 50 0 empty empty empty 0 -10 0 12 #c6feff #ff0400 #000000;
#X obj 29 72 spigot;
#X obj 29 97 bng 20 250 50 0 empty empty empty 0 -10 0 12 #e3c6ff #ff8300 #000000;
#X obj 68 30 tgl 35 0 empty empty empty 0 -10 0 12 #e3c6ff #9c00ff #000000 0 1;
#X obj 118 29 bng 35 250 50 0 empty empty empty 0 -10 0 12 #c6feff #ff0400 #000000;
#X obj 118 71 spigot;
#X obj 118 96 bng 20 250 50 0 empty empty empty 0 -10 0 12 #e3c6ff #ff8300 #000000;
#X obj 157 29 tgl 35 0 empty empty empty 0 -10 0 12 #e3c6ff #9c00ff #000000 0 1;
#X obj 209 29 bng 35 250 50 0 empty empty empty 0 -10 0 12 #c6feff #ff0400 #000000;
#X obj 209 71 spigot;
#X obj 209 96 bng 20 250 50 0 empty empty empty 0 -10 0 12 #e3c6ff #ff8300 #000000;
#X obj 248 29 tgl 35 0 empty empty empty 0 -10 0 12 #e3c6ff #9c00ff #000000 0 1;
#X obj 298 28 bng 35 250 50 0 empty empty empty 0 -10 0 12 #c6feff #ff0400 #000000;
#X obj 298 70 spigot;
#X obj 298 95 bng 20 250 50 0 empty empty empty 0 -10 0 12 #e3c6ff #ff8300 #000000;
#X obj 337 28 tgl 35 0 empty empty empty 0 -10 0 12 #e3c6ff #9c00ff #000000 0 1;
#X obj 389 29 bng 35 250 50 0 empty empty empty 0 -10 0 12 #c6feff #ff0400 #000000;
#X obj 389 71 spigot;
#X obj 389 96 bng 20 250 50 0 empty empty empty 0 -10 0 12 #e3c6ff #ff8300 #000000;
#X obj 428 29 tgl 35 0 empty empty empty 0 -10 0 12 #e3c6ff #9c00ff #000000 0 1;
#X obj 478 28 bng 35 250 50 0 empty empty empty 0 -10 0 12 #c6feff #ff0400 #000000;
#X obj 478 70 spigot;
#X obj 478 95 bng 20 250 50 0 empty empty empty 0 -10 0 12 #e3c6ff #ff8300 #000000;
#X obj 517 28 tgl 35 0 empty empty empty 0 -10 0 12 #e3c6ff #9c00ff #000000 0 1;
#X obj 569 28 bng 35 250 50 0 empty empty empty 0 -10 0 12 #c6feff #ff0400 #000000;
#X obj 569 70 spigot;
#X obj 569 95 bng 20 250 50 0 empty empty empty 0 -10 0 12 #e3c6ff #ff8300 #000000;
#X obj 608 28 tgl 35 0 empty empty empty 0 -10 0 12 #e3c6ff #9c00ff #000000 0 1;
#X obj 658 27 bng 35 250 50 0 empty empty empty 0 -10 0 12 #c6feff #ff0400 #000000;
#X obj 658 69 spigot;
#X obj 658 94 bng 20 250 50 0 empty empty empty 0 -10 0 12 #e3c6ff #ff8300 #000000;
#X obj 697 27 tgl 35 0 empty empty empty 0 -10 0 12 #e3c6ff #9c00ff #000000 0 1;
#X obj 118 3 r two;
#X obj 209 3 r three;
#X obj 298 2 r four;
#X obj 389 3 r five;
#X obj 478 2 r six;
#X obj 569 2 r seven;
#X obj 658 1 r eight;
#X obj 338 245 outlet;
#X connect 0 0 1 0;
#X connect 1 0 2 0;
#X connect 2 0 3 0;
#X connect 3 0 40 0;
#X connect 4 0 2 1;
#X connect 5 0 6 0;
#X connect 6 0 7 0;
#X connect 7 0 40 0;
#X connect 8 0 6 1;
#X connect 9 0 10 0;
#X connect 10 0 11 0;
#X connect 11 0 40 0;
#X connect 12 0 10 1;
#X connect 13 0 14 0;
#X connect 14 0 15 0;
#X connect 15 0 40 0;
#X connect 16 0 14 1;
#X connect 17 0 18 0;
#X connect 18 0 19 0;
#X connect 19 0 40 0;
#X connect 20 0 18 1;
#X connect 21 0 22 0;
#X connect 22 0 23 0;
#X connect 23 0 40 0;
#X connect 24 0 22 1;
#X connect 25 0 26 0;
#X connect 26 0 27 0;
#X connect 27 0 40 0;
#X connect 28 0 26 1;
#X connect 29 0 30 0;
#X connect 30 0 31 0;
#X connect 31 0 40 0;
#X connect 32 0 30 1;
#X connect 33 0 5 0;
#X connect 34 0 9 0;
#X connect 35 0 13 0;
#X connect 36 0 17 0;
#X connect 37 0 21 0;
#X connect 38 0 25 0;
#X connect 39 0 29 0;
#X coords 0 -1 1 1 730 110 2 20 20;
