#N canvas 4 38 821 822 12;
#X obj 38 177 r one;
#X obj 38 203 bng 35 250 50 0 empty empty empty 0 -10 0 12 #c6feff #ff0400 #000000;
#X obj 38 245 spigot;
#X obj 38 270 bng 20 250 50 0 empty empty empty 0 -10 0 12 #e3c6ff #ff8300 #000000;
#X obj 77 203 tgl 35 0 empty empty empty 0 -10 0 12 #e3c6ff #9c00ff #000000 0 1;
#X obj 127 202 bng 35 250 50 0 empty empty empty 0 -10 0 12 #c6feff #ff0400 #000000;
#X obj 127 244 spigot;
#X obj 127 269 bng 20 250 50 0 empty empty empty 0 -10 0 12 #e3c6ff #ff8300 #000000;
#X obj 166 202 tgl 35 0 empty empty empty 0 -10 0 12 #e3c6ff #9c00ff #000000 0 1;
#X obj 218 202 bng 35 250 50 0 empty empty empty 0 -10 0 12 #c6feff #ff0400 #000000;
#X obj 218 244 spigot;
#X obj 218 269 bng 20 250 50 0 empty empty empty 0 -10 0 12 #e3c6ff #ff8300 #000000;
#X obj 257 202 tgl 35 0 empty empty empty 0 -10 0 12 #e3c6ff #9c00ff #000000 0 1;
#X obj 317 201 bng 35 250 50 0 empty empty empty 0 -10 0 12 #c6feff #ff0400 #000000;
#X obj 317 243 spigot;
#X obj 317 268 bng 20 250 50 0 empty empty empty 0 -10 0 12 #e3c6ff #ff8300 #000000;
#X obj 356 201 tgl 35 0 empty empty empty 0 -10 0 12 #e3c6ff #9c00ff #000000 0 1;
#X obj 408 202 bng 35 250 50 0 empty empty empty 0 -10 0 12 #c6feff #ff0400 #000000;
#X obj 408 244 spigot;
#X obj 408 269 bng 20 250 50 0 empty empty empty 0 -10 0 12 #e3c6ff #ff8300 #000000;
#X obj 447 202 tgl 35 0 empty empty empty 0 -10 0 12 #e3c6ff #9c00ff #000000 0 1;
#X obj 497 201 bng 35 250 50 0 empty empty empty 0 -10 0 12 #c6feff #ff0400 #000000;
#X obj 497 243 spigot;
#X obj 497 268 bng 20 250 50 0 empty empty empty 0 -10 0 12 #e3c6ff #ff8300 #000000;
#X obj 536 201 tgl 35 0 empty empty empty 0 -10 0 12 #e3c6ff #9c00ff #000000 0 1;
#X obj 588 201 bng 35 250 50 0 empty empty empty 0 -10 0 12 #c6feff #ff0400 #000000;
#X obj 588 243 spigot;
#X obj 588 268 bng 20 250 50 0 empty empty empty 0 -10 0 12 #e3c6ff #ff8300 #000000;
#X obj 627 201 tgl 35 0 empty empty empty 0 -10 0 12 #e3c6ff #9c00ff #000000 0 1;
#X obj 677 200 bng 35 250 50 0 empty empty empty 0 -10 0 12 #c6feff #ff0400 #000000;
#X obj 677 242 spigot;
#X obj 677 267 bng 20 250 50 0 empty empty empty 0 -10 0 12 #e3c6ff #ff8300 #000000;
#X obj 716 200 tgl 35 0 empty empty empty 0 -10 0 12 #e3c6ff #9c00ff #000000 0 1;
#X obj 127 176 r two;
#X obj 218 176 r three;
#X obj 317 175 r four;
#X obj 408 176 r five;
#X obj 497 175 r six;
#X obj 588 175 r seven;
#X obj 677 174 r eight;
#X obj 396 -39 r bus_random;
#X obj 396 38 bng 19 250 50 0 empty empty empty 0 -10 0 12 #fcfcfc #000000 #000000;
#X floatatom 76 116 5 0 0 0 - - - 0;
#X obj 76 139 < 100;
#X obj 76 92 random 100;
#X floatatom 169 116 5 0 0 0 - - - 0;
#X obj 169 92 random 100;
#X floatatom 262 116 5 0 0 0 - - - 0;
#X obj 262 92 random 100;
#X floatatom 356 116 5 0 0 0 - - - 0;
#X obj 356 92 random 100;
#X floatatom 446 115 5 0 0 0 - - - 0;
#X obj 446 138 < 100;
#X obj 446 91 random 100;
#X floatatom 537 115 5 0 0 0 - - - 0;
#X obj 537 91 random 100;
#X floatatom 630 114 5 0 0 0 - - - 0;
#X obj 630 90 random 100;
#X floatatom 722 113 5 0 0 0 - - - 0;
#X obj 722 89 random 100;
#X obj 169 139 < 80;
#X obj 262 139 < 5;
#X obj 356 139 < 45;
#X obj 537 138 < 70;
#X obj 630 137 < 5;
#X obj 722 136 < 60;
#X obj 351 324 s kick;
#X obj 35 536 r one;
#X obj 35 562 bng 35 250 50 0 empty empty empty 0 -10 0 12 #c6feff #ff0400 #000000;
#X obj 35 604 spigot;
#X obj 35 629 bng 20 250 50 0 empty empty empty 0 -10 0 12 #e3c6ff #ff8300 #000000;
#X obj 74 562 tgl 35 0 empty empty empty 0 -10 0 12 #e3c6ff #9c00ff #000000 0 1;
#X obj 124 561 bng 35 250 50 0 empty empty empty 0 -10 0 12 #c6feff #ff0400 #000000;
#X obj 124 603 spigot;
#X obj 124 628 bng 20 250 50 0 empty empty empty 0 -10 0 12 #e3c6ff #ff8300 #000000;
#X obj 163 561 tgl 35 0 empty empty empty 0 -10 0 12 #e3c6ff #9c00ff #000000 0 1;
#X obj 215 561 bng 35 250 50 0 empty empty empty 0 -10 0 12 #c6feff #ff0400 #000000;
#X obj 215 603 spigot;
#X obj 215 628 bng 20 250 50 0 empty empty empty 0 -10 0 12 #e3c6ff #ff8300 #000000;
#X obj 254 561 tgl 35 0 empty empty empty 0 -10 0 12 #e3c6ff #9c00ff #000000 0 1;
#X obj 314 560 bng 35 250 50 0 empty empty empty 0 -10 0 12 #c6feff #ff0400 #000000;
#X obj 314 602 spigot;
#X obj 314 627 bng 20 250 50 0 empty empty empty 0 -10 0 12 #e3c6ff #ff8300 #000000;
#X obj 353 560 tgl 35 0 empty empty empty 0 -10 0 12 #e3c6ff #9c00ff #000000 0 1;
#X obj 405 561 bng 35 250 50 0 empty empty empty 0 -10 0 12 #c6feff #ff0400 #000000;
#X obj 405 603 spigot;
#X obj 405 628 bng 20 250 50 0 empty empty empty 0 -10 0 12 #e3c6ff #ff8300 #000000;
#X obj 444 561 tgl 35 0 empty empty empty 0 -10 0 12 #e3c6ff #9c00ff #000000 0 1;
#X obj 494 560 bng 35 250 50 0 empty empty empty 0 -10 0 12 #c6feff #ff0400 #000000;
#X obj 494 602 spigot;
#X obj 494 627 bng 20 250 50 0 empty empty empty 0 -10 0 12 #e3c6ff #ff8300 #000000;
#X obj 533 560 tgl 35 0 empty empty empty 0 -10 0 12 #e3c6ff #9c00ff #000000 0 1;
#X obj 585 560 bng 35 250 50 0 empty empty empty 0 -10 0 12 #c6feff #ff0400 #000000;
#X obj 585 602 spigot;
#X obj 585 627 bng 20 250 50 0 empty empty empty 0 -10 0 12 #e3c6ff #ff8300 #000000;
#X obj 624 560 tgl 35 0 empty empty empty 0 -10 0 12 #e3c6ff #9c00ff #000000 0 1;
#X obj 674 559 bng 35 250 50 0 empty empty empty 0 -10 0 12 #c6feff #ff0400 #000000;
#X obj 674 601 spigot;
#X obj 674 626 bng 20 250 50 0 empty empty empty 0 -10 0 12 #e3c6ff #ff8300 #000000;
#X obj 713 559 tgl 35 0 empty empty empty 0 -10 0 12 #e3c6ff #9c00ff #000000 0 1;
#X obj 124 535 r two;
#X obj 215 535 r three;
#X obj 314 534 r four;
#X obj 405 535 r five;
#X obj 494 534 r six;
#X obj 585 534 r seven;
#X obj 674 533 r eight;
#X obj 73 403 r bus_random;
#X obj 73 427 bng 19 250 50 0 empty empty empty 0 -10 0 12 #fcfcfc #000000 #000000;
#X floatatom 73 475 5 0 0 0 - - - 0;
#X obj 73 451 random 100;
#X obj 166 403 r bus_random;
#X obj 166 427 bng 19 250 50 0 empty empty empty 0 -10 0 12 #fcfcfc #000000 #000000;
#X floatatom 166 475 5 0 0 0 - - - 0;
#X obj 166 451 random 100;
#X obj 259 403 r bus_random;
#X obj 259 427 bng 19 250 50 0 empty empty empty 0 -10 0 12 #fcfcfc #000000 #000000;
#X floatatom 259 475 5 0 0 0 - - - 0;
#X obj 259 451 random 100;
#X obj 353 403 r bus_random;
#X obj 353 427 bng 19 250 50 0 empty empty empty 0 -10 0 12 #fcfcfc #000000 #000000;
#X floatatom 353 475 5 0 0 0 - - - 0;
#X obj 353 451 random 100;
#X obj 443 402 r bus_random;
#X obj 443 426 bng 19 250 50 0 empty empty empty 0 -10 0 12 #fcfcfc #000000 #000000;
#X floatatom 443 474 5 0 0 0 - - - 0;
#X obj 443 450 random 100;
#X obj 534 402 r bus_random;
#X obj 534 426 bng 19 250 50 0 empty empty empty 0 -10 0 12 #fcfcfc #000000 #000000;
#X floatatom 534 474 5 0 0 0 - - - 0;
#X obj 534 450 random 100;
#X obj 627 401 r bus_random;
#X obj 627 425 bng 19 250 50 0 empty empty empty 0 -10 0 12 #fcfcfc #000000 #000000;
#X floatatom 627 473 5 0 0 0 - - - 0;
#X obj 627 449 random 100;
#X obj 719 400 r bus_random;
#X obj 719 424 bng 19 250 50 0 empty empty empty 0 -10 0 12 #fcfcfc #000000 #000000;
#X floatatom 719 472 5 0 0 0 - - - 0;
#X obj 719 448 random 100;
#X obj 364 686 s snare;
#X obj 73 498 < 1;
#X obj 166 498 < 1;
#X obj 259 498 < 100;
#X obj 353 498 < 65;
#X obj 443 497 < 1;
#X obj 534 497 < 1;
#X obj 627 496 < 100;
#X obj 719 495 < 50;
#X obj 25 886 r one;
#X obj 25 912 bng 35 250 50 0 empty empty empty 0 -10 0 12 #c6feff #ff0400 #000000;
#X obj 25 954 spigot;
#X obj 25 979 bng 20 250 50 0 empty empty empty 0 -10 0 12 #e3c6ff #ff8300 #000000;
#X obj 64 912 tgl 35 0 empty empty empty 0 -10 0 12 #e3c6ff #9c00ff #000000 0 1;
#X obj 114 911 bng 35 250 50 0 empty empty empty 0 -10 0 12 #c6feff #ff0400 #000000;
#X obj 114 953 spigot;
#X obj 114 978 bng 20 250 50 0 empty empty empty 0 -10 0 12 #e3c6ff #ff8300 #000000;
#X obj 153 911 tgl 35 0 empty empty empty 0 -10 0 12 #e3c6ff #9c00ff #000000 0 1;
#X obj 205 911 bng 35 250 50 0 empty empty empty 0 -10 0 12 #c6feff #ff0400 #000000;
#X obj 205 953 spigot;
#X obj 205 978 bng 20 250 50 0 empty empty empty 0 -10 0 12 #e3c6ff #ff8300 #000000;
#X obj 244 911 tgl 35 0 empty empty empty 0 -10 0 12 #e3c6ff #9c00ff #000000 0 1;
#X obj 304 910 bng 35 250 50 0 empty empty empty 0 -10 0 12 #c6feff #ff0400 #000000;
#X obj 304 952 spigot;
#X obj 304 977 bng 20 250 50 0 empty empty empty 0 -10 0 12 #e3c6ff #ff8300 #000000;
#X obj 343 910 tgl 35 0 empty empty empty 0 -10 0 12 #e3c6ff #9c00ff #000000 0 1;
#X obj 395 911 bng 35 250 50 0 empty empty empty 0 -10 0 12 #c6feff #ff0400 #000000;
#X obj 395 953 spigot;
#X obj 395 978 bng 20 250 50 0 empty empty empty 0 -10 0 12 #e3c6ff #ff8300 #000000;
#X obj 434 911 tgl 35 0 empty empty empty 0 -10 0 12 #e3c6ff #9c00ff #000000 0 1;
#X obj 484 910 bng 35 250 50 0 empty empty empty 0 -10 0 12 #c6feff #ff0400 #000000;
#X obj 484 952 spigot;
#X obj 484 977 bng 20 250 50 0 empty empty empty 0 -10 0 12 #e3c6ff #ff8300 #000000;
#X obj 523 910 tgl 35 0 empty empty empty 0 -10 0 12 #e3c6ff #9c00ff #000000 0 1;
#X obj 575 910 bng 35 250 50 0 empty empty empty 0 -10 0 12 #c6feff #ff0400 #000000;
#X obj 575 952 spigot;
#X obj 575 977 bng 20 250 50 0 empty empty empty 0 -10 0 12 #e3c6ff #ff8300 #000000;
#X obj 614 910 tgl 35 0 empty empty empty 0 -10 0 12 #e3c6ff #9c00ff #000000 0 1;
#X obj 664 909 bng 35 250 50 0 empty empty empty 0 -10 0 12 #c6feff #ff0400 #000000;
#X obj 664 951 spigot;
#X obj 664 976 bng 20 250 50 0 empty empty empty 0 -10 0 12 #e3c6ff #ff8300 #000000;
#X obj 703 909 tgl 35 0 empty empty empty 0 -10 0 12 #e3c6ff #9c00ff #000000 0 1;
#X obj 114 885 r two;
#X obj 205 885 r three;
#X obj 304 884 r four;
#X obj 395 885 r five;
#X obj 484 884 r six;
#X obj 575 884 r seven;
#X obj 664 883 r eight;
#X obj 63 753 r bus_random;
#X obj 63 777 bng 19 250 50 0 empty empty empty 0 -10 0 12 #fcfcfc #000000 #000000;
#X floatatom 63 825 5 0 0 0 - - - 0;
#X obj 63 801 random 100;
#X obj 156 753 r bus_random;
#X obj 156 777 bng 19 250 50 0 empty empty empty 0 -10 0 12 #fcfcfc #000000 #000000;
#X floatatom 156 825 5 0 0 0 - - - 0;
#X obj 156 801 random 100;
#X obj 249 753 r bus_random;
#X obj 249 777 bng 19 250 50 0 empty empty empty 0 -10 0 12 #fcfcfc #000000 #000000;
#X floatatom 249 825 5 0 0 0 - - - 0;
#X obj 249 801 random 100;
#X obj 343 753 r bus_random;
#X obj 343 777 bng 19 250 50 0 empty empty empty 0 -10 0 12 #fcfcfc #000000 #000000;
#X floatatom 343 825 5 0 0 0 - - - 0;
#X obj 343 801 random 100;
#X obj 433 752 r bus_random;
#X obj 433 776 bng 19 250 50 0 empty empty empty 0 -10 0 12 #fcfcfc #000000 #000000;
#X floatatom 433 824 5 0 0 0 - - - 0;
#X obj 433 800 random 100;
#X obj 524 752 r bus_random;
#X obj 524 776 bng 19 250 50 0 empty empty empty 0 -10 0 12 #fcfcfc #000000 #000000;
#X floatatom 524 824 5 0 0 0 - - - 0;
#X obj 524 800 random 100;
#X obj 617 751 r bus_random;
#X obj 617 775 bng 19 250 50 0 empty empty empty 0 -10 0 12 #fcfcfc #000000 #000000;
#X floatatom 617 823 5 0 0 0 - - - 0;
#X obj 617 799 random 100;
#X obj 709 750 r bus_random;
#X obj 709 774 bng 19 250 50 0 empty empty empty 0 -10 0 12 #fcfcfc #000000 #000000;
#X floatatom 709 822 5 0 0 0 - - - 0;
#X obj 709 798 random 100;
#X obj 354 1033 s hihat;
#X obj 63 848 < 100;
#X obj 156 848 < 80;
#X obj 249 848 < 85;
#X obj 343 848 < 45;
#X obj 433 847 < 100;
#X obj 524 847 < 70;
#X obj 617 846 < 25;
#X obj 709 845 < 60;
#X obj 869 712 outputs~;
#X obj 887 435 909kick;
#X obj 918 551 808snare;
#X obj 918 525 r snare;
#X obj 891 396 r kick;
#X obj 831 191 8stepseq;
#X obj 396 15 spigot;
#X obj 435 -9 tgl 19 0 empty empty empty 0 -10 0 12 #fcfcfc #000000 #000000 0 1;
#X connect 0 0 1 0;
#X connect 1 0 2 0;
#X connect 2 0 3 0;
#X connect 3 0 66 0;
#X connect 4 0 2 1;
#X connect 5 0 6 0;
#X connect 6 0 7 0;
#X connect 7 0 66 0;
#X connect 8 0 6 1;
#X connect 9 0 10 0;
#X connect 10 0 11 0;
#X connect 11 0 66 0;
#X connect 12 0 10 1;
#X connect 13 0 14 0;
#X connect 14 0 15 0;
#X connect 15 0 66 0;
#X connect 16 0 14 1;
#X connect 17 0 18 0;
#X connect 18 0 19 0;
#X connect 19 0 66 0;
#X connect 20 0 18 1;
#X connect 21 0 22 0;
#X connect 22 0 23 0;
#X connect 23 0 66 0;
#X connect 24 0 22 1;
#X connect 25 0 26 0;
#X connect 26 0 27 0;
#X connect 27 0 66 0;
#X connect 28 0 26 1;
#X connect 29 0 30 0;
#X connect 30 0 31 0;
#X connect 31 0 66 0;
#X connect 32 0 30 1;
#X connect 33 0 5 0;
#X connect 34 0 9 0;
#X connect 35 0 13 0;
#X connect 36 0 17 0;
#X connect 37 0 21 0;
#X connect 38 0 25 0;
#X connect 39 0 29 0;
#X connect 40 0 235 0;
#X connect 41 0 44 0;
#X connect 41 0 59 0;
#X connect 41 0 57 0;
#X connect 41 0 55 0;
#X connect 41 0 53 0;
#X connect 41 0 50 0;
#X connect 41 0 48 0;
#X connect 41 0 46 0;
#X connect 42 0 43 0;
#X connect 43 0 4 0;
#X connect 44 0 42 0;
#X connect 45 0 60 0;
#X connect 46 0 45 0;
#X connect 47 0 61 0;
#X connect 48 0 47 0;
#X connect 49 0 62 0;
#X connect 50 0 49 0;
#X connect 51 0 52 0;
#X connect 52 0 20 0;
#X connect 53 0 51 0;
#X connect 54 0 63 0;
#X connect 55 0 54 0;
#X connect 56 0 64 0;
#X connect 57 0 56 0;
#X connect 58 0 65 0;
#X connect 59 0 58 0;
#X connect 60 0 8 0;
#X connect 61 0 12 0;
#X connect 62 0 16 0;
#X connect 63 0 24 0;
#X connect 64 0 28 0;
#X connect 65 0 32 0;
#X connect 67 0 68 0;
#X connect 68 0 69 0;
#X connect 69 0 70 0;
#X connect 70 0 139 0;
#X connect 71 0 69 1;
#X connect 72 0 73 0;
#X connect 73 0 74 0;
#X connect 74 0 139 0;
#X connect 75 0 73 1;
#X connect 76 0 77 0;
#X connect 77 0 78 0;
#X connect 78 0 139 0;
#X connect 79 0 77 1;
#X connect 80 0 81 0;
#X connect 81 0 82 0;
#X connect 82 0 139 0;
#X connect 83 0 81 1;
#X connect 84 0 85 0;
#X connect 85 0 86 0;
#X connect 86 0 139 0;
#X connect 87 0 85 1;
#X connect 88 0 89 0;
#X connect 89 0 90 0;
#X connect 90 0 139 0;
#X connect 91 0 89 1;
#X connect 92 0 93 0;
#X connect 93 0 94 0;
#X connect 94 0 139 0;
#X connect 95 0 93 1;
#X connect 96 0 97 0;
#X connect 97 0 98 0;
#X connect 98 0 139 0;
#X connect 99 0 97 1;
#X connect 100 0 72 0;
#X connect 101 0 76 0;
#X connect 102 0 80 0;
#X connect 103 0 84 0;
#X connect 104 0 88 0;
#X connect 105 0 92 0;
#X connect 106 0 96 0;
#X connect 107 0 108 0;
#X connect 108 0 110 0;
#X connect 109 0 140 0;
#X connect 110 0 109 0;
#X connect 111 0 112 0;
#X connect 112 0 114 0;
#X connect 113 0 141 0;
#X connect 114 0 113 0;
#X connect 115 0 116 0;
#X connect 116 0 118 0;
#X connect 117 0 142 0;
#X connect 118 0 117 0;
#X connect 119 0 120 0;
#X connect 120 0 122 0;
#X connect 121 0 143 0;
#X connect 122 0 121 0;
#X connect 123 0 124 0;
#X connect 124 0 126 0;
#X connect 125 0 144 0;
#X connect 126 0 125 0;
#X connect 127 0 128 0;
#X connect 128 0 130 0;
#X connect 129 0 145 0;
#X connect 130 0 129 0;
#X connect 131 0 132 0;
#X connect 132 0 134 0;
#X connect 133 0 146 0;
#X connect 134 0 133 0;
#X connect 135 0 136 0;
#X connect 136 0 138 0;
#X connect 137 0 147 0;
#X connect 138 0 137 0;
#X connect 140 0 71 0;
#X connect 141 0 75 0;
#X connect 142 0 79 0;
#X connect 143 0 83 0;
#X connect 144 0 87 0;
#X connect 145 0 91 0;
#X connect 146 0 95 0;
#X connect 147 0 99 0;
#X connect 148 0 149 0;
#X connect 149 0 150 0;
#X connect 150 0 151 0;
#X connect 151 0 220 0;
#X connect 152 0 150 1;
#X connect 153 0 154 0;
#X connect 154 0 155 0;
#X connect 155 0 220 0;
#X connect 156 0 154 1;
#X connect 157 0 158 0;
#X connect 158 0 159 0;
#X connect 159 0 220 0;
#X connect 160 0 158 1;
#X connect 161 0 162 0;
#X connect 162 0 163 0;
#X connect 163 0 220 0;
#X connect 164 0 162 1;
#X connect 165 0 166 0;
#X connect 166 0 167 0;
#X connect 167 0 220 0;
#X connect 168 0 166 1;
#X connect 169 0 170 0;
#X connect 170 0 171 0;
#X connect 171 0 220 0;
#X connect 172 0 170 1;
#X connect 173 0 174 0;
#X connect 174 0 175 0;
#X connect 175 0 220 0;
#X connect 176 0 174 1;
#X connect 177 0 178 0;
#X connect 178 0 179 0;
#X connect 179 0 220 0;
#X connect 180 0 178 1;
#X connect 181 0 153 0;
#X connect 182 0 157 0;
#X connect 183 0 161 0;
#X connect 184 0 165 0;
#X connect 185 0 169 0;
#X connect 186 0 173 0;
#X connect 187 0 177 0;
#X connect 188 0 189 0;
#X connect 189 0 191 0;
#X connect 190 0 221 0;
#X connect 191 0 190 0;
#X connect 192 0 193 0;
#X connect 193 0 195 0;
#X connect 194 0 222 0;
#X connect 195 0 194 0;
#X connect 196 0 197 0;
#X connect 197 0 199 0;
#X connect 198 0 223 0;
#X connect 199 0 198 0;
#X connect 200 0 201 0;
#X connect 201 0 203 0;
#X connect 202 0 224 0;
#X connect 203 0 202 0;
#X connect 204 0 205 0;
#X connect 205 0 207 0;
#X connect 206 0 225 0;
#X connect 207 0 206 0;
#X connect 208 0 209 0;
#X connect 209 0 211 0;
#X connect 210 0 226 0;
#X connect 211 0 210 0;
#X connect 212 0 213 0;
#X connect 213 0 215 0;
#X connect 214 0 227 0;
#X connect 215 0 214 0;
#X connect 216 0 217 0;
#X connect 217 0 219 0;
#X connect 218 0 228 0;
#X connect 219 0 218 0;
#X connect 221 0 152 0;
#X connect 222 0 156 0;
#X connect 223 0 160 0;
#X connect 224 0 164 0;
#X connect 225 0 168 0;
#X connect 226 0 172 0;
#X connect 227 0 176 0;
#X connect 228 0 180 0;
#X connect 230 0 229 0;
#X connect 230 0 229 1;
#X connect 231 0 229 0;
#X connect 231 0 229 1;
#X connect 232 0 231 0;
#X connect 233 0 230 0;
#X connect 235 0 41 0;
#X connect 236 0 235 1;
#X coords 0 822 1 821 730 110 0;
