#N canvas 770 38 822 373 12;
#X obj 223 -7 inlet;
#X obj 223 18 bng 20 250 50 0 empty empty empty 0 -10 0 12 #fcfcfc #000000 #000000;
#X msg 99 412 0.2 0 \, 0 1 0;
#X obj 99 437 vline~;
#X obj 263 430 vline~;
#X obj 263 455 osc~;
#X obj 278 537 *~;
#X obj 395 428 vline~;
#X obj 395 453 pow~ 1.5;
#X msg 477 20 target interval delay;
#X obj 599 436 vline~;
#X obj 521 454 noise~;
#X obj 521 479 lop~ 300;
#X obj 581 521 *~;
#X obj 335 705 outlet~;
#X msg 605 402 0.05 4 \, 0 100 4;
#X msg 217 258 50;
#X msg 236 288 80;
#X msg 282 309 120;
#X obj 267 341 pack 50 10;
#X msg 333 266 10;
#X msg 384 264 100, f 6;
#X msg 264 405 250 0 \, \$1 \$2 0;
#X listbox 109 133 10 0 0 0 - - - 0;
#X msg 452 282 360;
#X obj 430 365 float 600;
#X msg 520 284 660;
#X msg 395 403 1 4 \, 0.9 65 5 \, 0 \$1 69;
#X obj 194 107 vradio 15 1 1 3 empty empty empty 0 -10 0 12 #fcfcfc #000000 #000000 0;
#X obj 215 209 sel 0 1 2;
#X obj 223 121 vradio 15 1 1 2 empty empty empty 0 -10 0 12 #fcfcfc #000000 #000000 1;
#X obj 309 214 sel 0 1;
#X obj 251 121 vradio 15 1 1 2 empty empty empty 0 -10 0 12 #fcfcfc #000000 #000000 1;
#X obj 454 239 sel 0 1;
#X floatatom 109 109 5 0 0 0 - - - 0;
#X obj 327 298 t b f;
#X connect 0 0 1 0;
#X connect 1 0 2 0;
#X connect 1 0 19 0;
#X connect 1 0 25 0;
#X connect 2 0 3 0;
#X connect 3 0 14 0;
#X connect 4 0 5 0;
#X connect 5 0 6 0;
#X connect 6 0 14 0;
#X connect 7 0 8 0;
#X connect 8 0 6 1;
#X connect 10 0 13 1;
#X connect 11 0 12 0;
#X connect 12 0 13 0;
#X connect 13 0 14 0;
#X connect 15 0 10 0;
#X connect 16 0 19 0;
#X connect 17 0 19 0;
#X connect 18 0 19 0;
#X connect 19 0 23 0;
#X connect 19 0 22 0;
#X connect 20 0 35 0;
#X connect 21 0 35 0;
#X connect 22 0 4 0;
#X connect 24 0 25 1;
#X connect 25 0 27 0;
#X connect 25 0 34 0;
#X connect 26 0 25 1;
#X connect 27 0 7 0;
#X connect 28 0 29 0;
#X connect 29 0 16 0;
#X connect 29 1 17 0;
#X connect 29 2 18 0;
#X connect 30 0 31 0;
#X connect 31 0 20 0;
#X connect 31 1 21 0;
#X connect 32 0 33 0;
#X connect 33 0 24 0;
#X connect 33 1 26 0;
#X connect 35 0 19 0;
#X connect 35 1 19 1;
#X coords 0 -1 1 1 180 80 1 100 80;
