#N canvas 4 38 821 822 12;
#X obj 295 51 inlet;
#X obj 295 76 bng 20 250 50 0 empty empty empty 0 -10 0 12 #fcfcfc #000000 #000000;
#X msg 155 141 0.2 0 \, 0 1 0;
#X obj 155 166 vline~;
#X obj 289 166 vline~;
#X obj 289 191 osc~;
#X obj 288 235 *~;
#X obj 250 350 dac~;
#X msg 289 141 250 0 \, 50 100 0;
#X msg 426 139 1 4 \, 0.9 65 4 \, 0 660 69;
#X obj 426 164 vline~;
#X obj 426 189 pow~ 1.5;
#X msg 618 140 0.05 4 \, 0 100 4;
#X obj 618 165 vline~;
#X obj 535 181 noise~;
#X obj 535 206 lop~ 300;
#X obj 590 249 *~;
#X connect 0 0 1 0;
#X connect 1 0 2 0;
#X connect 1 0 8 0;
#X connect 1 0 9 0;
#X connect 1 0 12 0;
#X connect 2 0 3 0;
#X connect 3 0 7 0;
#X connect 3 0 7 1;
#X connect 4 0 5 0;
#X connect 5 0 6 0;
#X connect 6 0 7 0;
#X connect 6 0 7 1;
#X connect 8 0 4 0;
#X connect 9 0 10 0;
#X connect 10 0 11 0;
#X connect 11 0 6 1;
#X connect 12 0 13 0;
#X connect 13 0 16 1;
#X connect 14 0 15 0;
#X connect 15 0 16 0;
#X connect 16 0 7 0;
#X connect 16 0 7 1;
