#N canvas 1094 38 498 549 12;
#X obj 287 27 inlet;
#X obj 287 52 bng 20 250 50 0 empty empty empty 0 -10 0 12 #fcfcfc #000000 #000000;
#X obj 287 77 random 8;
#X floatatom 287 102 5 0 0 0 - - - 0;
#X obj 50 162 sel 0;
#X text 65 198 C;
#X text 544 194 C;
#X text 137 197 D;
#X text 204 197 E;
#X text 276 196 F;
#X text 341 196 G;
#X text 413 195 A;
#X text 476 194 B;
#X obj 122 161 sel 1;
#X obj 189 161 sel 2;
#X obj 261 160 sel 3;
#X obj 326 160 sel 4;
#X obj 398 159 sel 5;
#X obj 461 158 sel 6;
#X obj 529 158 sel 7;
#X floatatom 283 305 5 0 0 0 - - - 0;
#X obj 283 329 mtof;
#X floatatom 283 354 5 0 0 0 - - - 0;
#X obj 283 378 outlet;
#X msg 50 231 60;
#X msg 122 230 62;
#X msg 189 230 64;
#X msg 261 229 65;
#X msg 326 229 67;
#X msg 398 228 69;
#X msg 461 227 71;
#X msg 529 227 72;
#X text 586 227 <- midi keys;
#X text 354 105 C major scale;
#X connect 0 0 1 0;
#X connect 1 0 2 0;
#X connect 2 0 3 0;
#X connect 3 0 4 0;
#X connect 3 0 13 0;
#X connect 3 0 19 0;
#X connect 3 0 18 0;
#X connect 3 0 17 0;
#X connect 3 0 16 0;
#X connect 3 0 15 0;
#X connect 3 0 14 0;
#X connect 4 0 24 0;
#X connect 13 0 25 0;
#X connect 14 0 26 0;
#X connect 15 0 27 0;
#X connect 16 0 28 0;
#X connect 17 0 29 0;
#X connect 18 0 30 0;
#X connect 19 0 31 0;
#X connect 20 0 21 0;
#X connect 21 0 22 0;
#X connect 22 0 23 0;
#X connect 24 0 20 0;
#X connect 25 0 20 0;
#X connect 26 0 20 0;
#X connect 27 0 20 0;
#X connect 28 0 20 0;
#X connect 29 0 20 0;
#X connect 30 0 20 0;
#X connect 31 0 20 0;
