#N canvas 132 329 429 344 12;
#X floatatom 164 53 4 -100 1 0 - - - 0;
#X obj 202 80 t b f;
#X floatatom 202 53 5 1 100 0 - - - 0;
#X obj 163 207 hsl 128 18 1 34 0 0 empty empty empty 0 -9 0 10 #dfdfdf #000000 #000000 0 1;
#X msg 160 151 range \$1 \$2;
#X obj 160 109 pack 0 127, f 11;
#X text 101 52 minimum;
#X text 246 51 maximum;
#X floatatom 160 248 5 0 0 0 - - - 0;
#X floatatom 88 153 5 0 0 0 - - - 0;
#X obj 148 17 inlet;
#X obj 215 17 inlet;
#X obj 160 272 outlet;
#X text 307 207 comment;
#X connect 0 0 5 0;
#X connect 1 0 5 0;
#X connect 1 1 5 1;
#X connect 2 0 1 0;
#X connect 3 0 8 0;
#X connect 4 0 3 0;
#X connect 5 0 4 0;
#X connect 8 0 12 0;
#X connect 9 0 3 0;
#X connect 10 0 0 0;
#X connect 11 0 2 0;
#X coords 0 -1 1 1 150 50 1 150 190;
