#N canvas 833 38 759 822 12;
#X msg 21 184 roomsize \$1;
#X msg 49 258 damping \$1;
#X msg 30 228 width \$1;
#X msg 125 197 wet \$1;
#X msg 152 229 dry \$1;
#X msg 78 306 freeze \$1;
#X msg 83 344 bypass \$1;
#X obj 298 99 tgl 15 0 empty empty bypass 0 -4 0 8 #fcfcfc #000000 #000000 0 1;
#X obj 261 99 tgl 15 0 empty empty freeze 0 -4 0 8 #fcfcfc #000000 #000000 0 1;
#X obj 264 66 hsl 60 18 0 1 0 1 empty empty dry 2 9 1 12 #d8fcd8 #000000 #000000 2400 0;
#X obj 264 32 hsl 60 18 0 1 0 1 empty empty wet 2 9 1 12 #d8fcd8 #000000 #000000 5300 0;
#X obj 158 96 hsl 60 18 0 1 0 1 empty empty width 2 9 1 12 #fcfcc8 #000000 #000000 5900 0;
#X obj 158 65 hsl 60 18 0 2 0 1 empty empty damping 2 9 1 12 #fce0e0 #000000 #000000 5700 0;
#X obj 158 32 hsl 60 18 0.11 1.1 0 1 empty empty roomsize 2 9 1 12 #fce0e0 #000000 #000000 4200 0;
#X floatatom 227 32 3 0 0 0 - - - 0;
#X floatatom 226 64 3 0 0 0 - - - 0;
#X floatatom 227 95 3 0 0 0 - - - 12;
#X floatatom 332 33 3 0 0 0 - - - 0;
#X floatatom 333 65 3 0 0 0 - - - 0;
#X obj 26 530 freeverb~/freeverb~;
#X obj 333 99 tgl 15 0 empty empty fpf 0 -4 0 8 #fcfcfc #000000 #000000 0 1;
#X msg 85 382 firstpassfilter \$1;
#X obj 49 576 outlet~;
#X obj 124 579 outlet~;
#X obj 52 497 inlet~;
#X obj 113 490 inlet~;
#X connect 0 0 19 0;
#X connect 1 0 19 0;
#X connect 2 0 19 0;
#X connect 3 0 19 0;
#X connect 4 0 19 0;
#X connect 5 0 19 0;
#X connect 6 0 19 0;
#X connect 7 0 6 0;
#X connect 8 0 5 0;
#X connect 9 0 4 0;
#X connect 9 0 18 0;
#X connect 10 0 3 0;
#X connect 10 0 17 0;
#X connect 11 0 2 0;
#X connect 11 0 16 0;
#X connect 12 0 1 0;
#X connect 12 0 15 0;
#X connect 13 0 0 0;
#X connect 13 0 14 0;
#X connect 19 0 22 0;
#X connect 19 1 23 0;
#X connect 20 0 21 0;
#X connect 21 0 19 0;
#X connect 24 0 19 0;
#X connect 25 0 19 1;
#X coords 0 -1 1 1 230 110 2 140 20;
