#N canvas 166 160 569 415 12;
#X obj 310 223 pix_film;
#X obj 304 26 gemhead;
#X obj 30 72 bng 20 250 50 0 empty empty empty 17 7 0 10 #fcfcfc #000000 #000000;
#X obj 339 88 openpanel;
#X msg 340 119 open \$1;
#X obj 142 36 cnv 15 20 20 empty empty 3 6 10 0 14 #fcc4c4 #404040 0;
#X msg 440 189 1;
#X obj 338 148 loadbang;
#X floatatom 30 103 5 0 0 0 - - - 0;
#X msg 339 181 auto 1;
#X obj 337 279 unpack f f f f;
#X msg 240 154 auto 0;
#X obj 240 119 r stop;
#X obj 441 160 r play;
#X obj 359 252 s repeat;
#X floatatom 30 131 5 0 0 0 - - - 0;
#X text 82 133 framerate;
#X text 82 104 frames;
#X text 54 70 load video file;
#X obj 216 290 outlet;
#X obj 432 341 s framerate;
#X obj 433 78 r video_file;
#X floatatom 338 333 5 0 0 0 - - - 0;
#X floatatom 388 335 5 0 0 0 - - - 0;
#X obj 308 368 s width;
#X obj 387 368 s height;
#X connect 0 0 19 0;
#X connect 0 1 10 0;
#X connect 0 2 14 0;
#X connect 1 0 0 0;
#X connect 2 0 3 0;
#X connect 3 0 4 0;
#X connect 4 0 0 0;
#X connect 6 0 0 1;
#X connect 7 0 9 0;
#X connect 9 0 0 0;
#X connect 10 0 8 0;
#X connect 10 1 22 0;
#X connect 10 2 23 0;
#X connect 10 3 15 0;
#X connect 10 3 20 0;
#X connect 11 0 0 0;
#X connect 12 0 11 0;
#X connect 13 0 9 0;
#X connect 13 0 6 0;
#X connect 21 0 4 0;
#X connect 22 0 24 0;
#X connect 23 0 25 0;
#X coords 0 -1 1 1 160 140 1 20 30;
